<?xml version="1.0" standalone="no"?>
<!DOCTYPE svg PUBLIC "-//W3C//DTD SVG 20010904//EN"
 "http://www.w3.org/TR/2001/REC-SVG-20010904/DTD/svg10.dtd">
<svg version="1.0" xmlns="http://www.w3.org/2000/svg"
 width="720.000000pt" height="364.000000pt" viewBox="0 0 720.000000 364.000000"
 preserveAspectRatio="xMidYMid meet">

<g transform="translate(0.000000,364.000000) scale(0.100000,-0.100000)"
fill="#FF0000" stroke="none">
<path d="M6750 3631 c0 -5 -7 -12 -16 -15 -9 -4 -13 -2 -8 5 4 7 0 9 -12 5
-25 -7 -137 -26 -196 -33 -27 -3 -48 -10 -48 -15 0 -5 -4 -7 -10 -3 -10 6 -24
4 -305 -45 -297 -51 -695 -119 -769 -131 -54 -9 -74 -17 -89 -35 -21 -27 -57
-32 -57 -9 0 9 -9 15 -22 14 -29 -2 -87 -16 -70 -18 6 0 12 -8 12 -17 0 -11
-6 -14 -20 -9 -11 3 -20 3 -20 -2 0 -13 -49 -32 -56 -22 -12 20 -24 8 -18 -18
7 -25 6 -27 -9 -15 -9 8 -21 11 -27 7 -5 -3 -10 -1 -10 4 0 6 -5 11 -10 11 -6
0 -8 -11 -6 -25 3 -14 1 -25 -4 -25 -5 0 -15 -2 -22 -5 -8 -3 -25 4 -38 15
-16 14 -30 18 -44 13 -12 -3 -34 -6 -49 -5 -15 2 -34 -3 -42 -10 -8 -7 -21
-19 -30 -26 -8 -7 -15 -18 -15 -24 0 -7 5 -6 15 2 12 10 15 10 15 -4 0 -9 -6
-16 -12 -16 -9 0 -8 -3 2 -10 8 -5 12 -12 8 -15 -3 -4 -16 0 -27 7 -26 16 -54
1 -59 -30 -4 -28 -29 -31 -74 -10 -47 23 -44 23 -51 -12 -4 -16 -11 -30 -16
-30 -6 0 -7 8 -4 17 5 13 2 15 -13 10 -17 -6 -17 -5 2 11 11 10 23 30 26 45 4
22 1 27 -13 27 -11 0 -19 -7 -19 -15 0 -8 -4 -15 -10 -15 -5 0 -10 9 -10 20 0
22 -28 39 -39 23 -13 -19 -38 -20 -75 -3 -44 20 -54 19 -246 -15 -74 -13 -172
-29 -217 -36 -45 -7 -79 -17 -77 -21 9 -14 95 -9 110 7 17 17 54 20 54 5 0 -5
-9 -10 -19 -10 -14 0 -18 -5 -14 -19 3 -13 11 -17 24 -14 10 3 17 9 14 13 -9
14 12 21 23 7 16 -20 8 -60 -18 -89 -27 -32 -45 -35 -58 -12 -5 9 -26 22 -46
29 -32 11 -36 11 -36 -5 0 -10 7 -20 15 -24 16 -6 21 -36 5 -36 -5 0 -7 6 -4
14 6 15 -33 29 -42 15 -8 -13 -62 -11 -66 3 -2 6 -18 11 -36 11 -18 0 -32 2
-32 4 0 2 24 26 52 54 51 50 52 51 23 46 -17 -4 -88 -16 -160 -28 -189 -31
-196 -33 -195 -44 1 -5 -3 -11 -9 -13 -6 -2 -11 2 -11 8 0 9 -11 10 -36 5 -57
-10 -85 -47 -44 -58 11 -3 20 -11 20 -19 0 -9 -3 -9 -8 -2 -5 8 -13 5 -27 -9
-20 -20 -20 -20 8 -13 28 7 39 -10 13 -20 -19 -7 -56 13 -56 31 0 8 -6 14 -12
12 -7 -1 -14 8 -16 19 -2 16 4 23 24 28 53 14 13 19 -53 7 -38 -6 -108 -18
-158 -27 -49 -8 -110 -19 -135 -24 -25 -5 -81 -14 -125 -20 -103 -15 -135 -27
-135 -52 0 -10 -4 -17 -10 -13 -5 3 -7 12 -3 20 7 21 -41 20 -61 -1 -10 -10
-21 -12 -31 -6 -10 5 -77 -2 -178 -20 -89 -16 -189 -32 -222 -37 -33 -6 -125
-21 -205 -36 -80 -14 -168 -28 -197 -32 -41 -4 -50 -9 -46 -22 4 -12 2 -13 -4
-3 -7 10 -25 10 -79 2 -38 -5 -75 -10 -82 -10 -7 0 -11 -3 -9 -7 3 -5 -18 -9
-46 -11 -28 -1 -58 -9 -68 -18 -10 -9 -18 -11 -20 -5 -4 11 -40 7 -209 -23
-338 -59 -513 -89 -565 -97 -33 -4 -84 -13 -114 -19 -29 -5 -56 -10 -58 -10
-2 0 -1 -6 3 -12 5 -10 4 -10 -5 -2 -8 7 -34 7 -89 -2 -42 -8 -106 -18 -142
-24 -124 -19 -221 -37 -226 -42 -2 -3 3 -47 11 -99 9 -52 20 -119 25 -149 19
-126 32 -184 45 -196 8 -8 11 -29 8 -56 -2 -24 7 -108 21 -188 63 -365 86
-501 86 -510 0 -6 7 -10 16 -10 11 0 14 -5 10 -16 -4 -11 1 -18 14 -21 20 -5
20 -5 0 -34 -15 -21 -19 -35 -13 -56 4 -15 6 -36 4 -46 -1 -10 4 -17 15 -17
13 0 14 -3 5 -14 -9 -11 -8 -35 4 -103 9 -48 20 -115 26 -148 5 -33 14 -82 18
-110 5 -27 14 -85 21 -127 13 -79 21 -92 39 -61 19 35 20 6 0 -31 -11 -20 -17
-41 -14 -46 4 -6 8 -33 10 -61 7 -80 24 -91 51 -34 9 19 18 35 20 35 10 0 3
-40 -9 -52 -39 -38 -45 -61 -34 -121 8 -40 15 -56 24 -52 10 3 11 0 3 -15 -5
-10 -10 -27 -10 -37 0 -16 3 -15 18 5 25 32 33 17 16 -30 -8 -22 -14 -49 -14
-60 0 -17 5 -19 33 -13 59 12 67 16 82 43 8 16 14 21 15 12 0 -9 -6 -22 -12
-29 -11 -10 -7 -11 17 -5 17 4 34 13 38 21 5 7 13 11 19 7 6 -4 5 -10 -3 -15
-11 -7 -10 -9 3 -9 9 0 19 4 22 9 3 5 23 11 43 14 68 9 78 12 85 22 5 6 8 5 8
-2 0 -9 11 -11 33 -7 35 6 118 22 157 31 l25 5 -24 9 c-16 6 -28 5 -37 -2 -8
-7 -14 -7 -14 -2 0 12 58 58 73 58 6 0 14 -11 17 -25 5 -21 12 -25 43 -25 23
-1 37 4 37 11 0 7 5 16 12 20 8 5 9 2 5 -9 -5 -14 0 -17 24 -17 17 0 28 4 25
8 -3 5 8 8 24 7 21 -1 30 3 30 14 0 22 17 47 26 38 4 -3 1 -13 -6 -22 -7 -9
-10 -19 -6 -22 4 -4 11 -1 16 7 7 10 10 11 10 3 0 -7 7 -13 15 -13 8 0 15 6
15 14 0 18 39 25 61 12 9 -5 25 -6 35 -1 11 4 27 7 38 6 27 -4 68 8 61 18 -3
5 4 7 15 4 13 -3 20 0 20 8 0 14 38 44 46 36 8 -7 -8 -37 -16 -32 -5 3 -12 0
-16 -6 -5 -8 6 -9 37 -5 89 14 139 28 139 41 0 10 9 11 41 4 22 -5 46 -6 52
-2 7 4 20 6 30 5 10 -2 16 2 15 9 -2 7 6 15 16 17 14 3 17 0 13 -11 -6 -16 -2
-16 38 -1 11 4 30 6 42 5 13 -1 27 6 35 18 15 25 30 28 21 5 -5 -13 0 -14 33
-8 22 3 47 13 56 21 12 11 21 12 37 4 13 -7 22 -8 26 -1 3 5 15 10 26 10 17 0
20 4 14 29 -4 18 -2 32 5 36 9 5 10 1 5 -16 -7 -20 -6 -22 7 -12 22 18 31 3
11 -19 -15 -17 -15 -18 11 -18 16 0 25 4 21 10 -4 6 -1 18 6 26 11 14 14 13
24 -6 l11 -21 26 21 c31 24 38 25 38 5 0 -15 12 -20 23 -9 3 3 25 7 49 9 76 5
128 23 128 45 0 21 12 24 45 10 19 -8 19 -8 -5 -19 l-25 -12 25 6 c14 2 30 5
37 5 6 0 14 8 16 18 4 16 5 16 6 0 1 -22 2 -22 49 -3 20 9 48 13 62 10 19 -4
21 -3 10 5 -13 8 -11 11 8 16 12 4 22 10 22 15 0 5 14 9 32 9 l31 0 -23 -20
c-18 -15 -19 -20 -7 -20 9 0 19 5 22 10 4 6 10 8 14 6 4 -3 70 6 146 19 207
35 205 34 205 59 1 19 2 19 11 3 14 -24 34 -21 45 8 7 19 13 23 24 15 13 -8
12 -11 -5 -24 -15 -12 -16 -15 -5 -16 25 0 36 13 38 48 1 18 11 41 22 52 22
22 40 26 40 10 0 -5 -6 -10 -14 -10 -19 0 -23 -7 -31 -54 l-8 -39 29 7 c16 4
36 13 44 20 27 23 41 28 38 14 -2 -10 9 -12 42 -9 25 1 49 5 54 8 4 3 29 7 55
9 73 7 78 9 100 34 19 23 20 24 15 4 -5 -19 -2 -21 20 -17 14 3 23 10 20 15
-4 6 2 7 15 3 25 -8 191 15 191 27 0 4 6 5 14 2 8 -3 65 4 127 15 63 11 168
29 234 41 66 11 153 25 194 32 57 10 75 17 81 33 7 17 9 17 9 3 1 -10 5 -18 9
-18 33 0 226 41 237 50 8 7 27 9 43 5 40 -8 82 3 82 24 0 13 -2 13 -9 2 -6 -9
-10 -10 -16 -2 -5 9 -10 9 -21 0 -13 -10 -14 -8 -10 17 3 16 10 30 15 32 6 2
6 12 -1 27 -14 32 2 52 49 61 47 9 83 -11 83 -46 0 -32 -27 -61 -39 -42 -5 8
-13 0 -24 -23 l-17 -35 25 0 c18 0 25 5 25 19 0 11 9 22 19 26 12 4 23 22 31
52 8 34 14 43 20 33 7 -12 10 -12 16 3 7 20 24 13 24 -10 0 -25 -31 -83 -46
-83 -13 0 -29 -18 -22 -25 5 -5 138 13 158 21 8 4 35 8 59 10 24 2 63 9 85 15
23 7 52 13 66 15 43 5 57 9 76 24 11 9 15 10 10 3 -10 -17 23 -17 110 1 38 8
103 20 144 26 129 19 180 33 181 47 1 7 2 18 3 25 1 15 26 23 26 8 0 -6 -5
-21 -11 -32 -10 -19 -9 -20 12 -15 13 3 41 9 62 12 20 4 37 11 37 17 0 5 4 7
9 3 5 -3 13 0 17 6 5 8 8 8 14 -1 5 -8 20 -9 51 -3 41 8 44 11 41 38 -5 39 -9
42 -26 19 -8 -10 -18 -16 -22 -12 -4 4 -13 3 -21 -3 -10 -9 -13 -7 -13 10 0
11 5 21 10 21 6 0 10 8 10 18 0 13 2 14 9 3 5 -7 10 -9 12 -3 9 23 47 -7 53
-42 6 -34 27 -48 40 -27 3 4 17 6 31 3 14 -2 36 3 52 13 17 12 28 14 31 7 4
-14 31 -5 60 21 20 18 27 17 23 -5 0 -5 2 -8 6 -8 20 0 140 21 153 27 8 3 29
7 45 9 27 2 72 9 85 13 3 1 -2 6 -10 12 -12 9 -12 10 4 5 11 -4 23 -1 27 6 7
10 13 10 27 2 19 -12 40 -12 114 2 24 4 47 7 51 6 5 -1 27 3 50 10 23 6 56 13
72 15 60 7 65 8 65 16 0 4 0 12 0 18 0 6 -9 8 -22 4 -22 -6 -22 -5 -5 9 17 13
18 20 7 83 -6 37 -14 87 -17 111 -4 34 -10 43 -29 48 -13 3 -21 10 -18 16 3 5
12 4 22 -4 14 -11 15 -10 9 12 -4 14 -7 32 -7 40 -1 12 -3 11 -11 -2 -12 -22
-65 -24 -72 -4 -4 10 -1 13 9 9 14 -5 19 10 16 52 -2 14 0 16 6 7 9 -13 42 -6
42 9 0 29 -23 109 -32 109 -6 0 -5 6 2 15 10 12 10 19 2 27 -9 9 -12 7 -13 -8
0 -11 -3 -14 -6 -6 -3 7 0 18 6 26 8 9 6 38 -4 102 -8 49 -18 112 -21 139 -4
28 -10 52 -15 53 -5 2 -9 30 -9 63 0 32 -3 59 -7 59 -5 0 -9 28 -11 61 -1 34
-5 65 -8 70 -9 15 -41 10 -48 -7 -4 -10 -14 -14 -26 -11 -12 3 -21 -1 -25 -12
-8 -24 -51 -52 -70 -45 -23 9 60 88 86 81 14 -4 19 0 19 16 0 15 3 18 8 9 7
-9 13 -8 27 8 18 19 18 20 -1 20 -10 0 -31 -7 -46 -14 -24 -13 -28 -13 -28 0
0 8 8 14 18 14 13 0 14 2 4 9 -11 7 -11 9 2 14 9 4 16 2 16 -3 0 -16 30 -11
36 5 9 22 -5 105 -17 105 -6 0 -7 -4 -4 -10 4 -6 -7 -10 -24 -10 -27 0 -35 -7
-33 -30 0 -3 -11 -5 -24 -5 -13 0 -24 3 -24 8 0 4 4 7 10 7 5 0 7 7 4 15 -4 9
0 15 7 15 11 0 11 3 -1 10 -9 6 -10 10 -3 10 6 0 14 -4 17 -9 11 -17 76 12 76
34 0 4 -11 4 -25 1 -31 -8 -32 0 -2 26 12 11 15 16 7 12 -12 -6 -13 -4 -2 7
14 15 16 49 4 49 -5 0 -8 17 -7 38 1 20 -5 66 -12 102 -7 36 -24 133 -37 215
-33 199 -94 556 -108 628 -6 31 -15 57 -19 57 -5 0 -9 -4 -9 -9z m-380 -91 c0
-5 -4 -10 -10 -10 -5 0 -10 5 -10 10 0 6 5 10 10 10 6 0 10 -4 10 -10z m-85
-10 c-3 -5 -10 -10 -16 -10 -5 0 -9 5 -9 10 0 6 7 10 16 10 8 0 12 -4 9 -10z
m290 -10 c-3 -5 -11 -10 -16 -10 -6 0 -7 5 -4 10 3 6 11 10 16 10 6 0 7 -4 4
-10z m-81 -47 c-16 -13 -35 -28 -42 -34 -7 -6 -16 -8 -20 -4 -4 3 1 11 11 16
9 6 17 16 17 23 0 15 41 36 54 28 5 -3 -4 -16 -20 -29z m166 -18 c0 -8 -4 -15
-10 -15 -5 0 -10 7 -10 15 0 8 5 15 10 15 6 0 10 -7 10 -15z m-300 -70 c0 -9
-11 -20 -24 -25 -13 -5 -27 -14 -31 -19 -11 -19 -25 -12 -25 13 0 19 4 24 20
21 13 -2 20 2 20 11 0 8 9 14 20 14 11 0 20 -7 20 -15z m-714 -8 c16 6 17 5 6
-9 -10 -13 -10 -17 0 -21 8 -4 7 -6 -4 -6 -10 -1 -18 -5 -18 -10 0 -5 -10 -13
-21 -16 -17 -6 -19 -9 -8 -16 10 -6 11 -9 2 -9 -21 0 -27 -3 -41 -17 -20 -20
-32 -16 -29 10 2 13 16 28 35 37 20 10 33 25 38 44 4 17 9 24 13 17 5 -7 16
-9 27 -4z m-296 -12 c0 -8 -4 -15 -10 -15 -5 0 -10 7 -10 15 0 8 5 15 10 15 6
0 10 -7 10 -15z m-97 -49 c12 -3 28 1 37 9 14 13 16 11 16 -20 0 -38 -6 -41
-38 -24 -15 8 -19 8 -14 0 4 -6 2 -11 -3 -11 -6 0 -11 7 -11 15 0 8 -6 12 -13
9 -7 -2 -22 4 -32 16 -15 17 -16 20 -2 20 8 0 17 -3 20 -7 2 -5 3 -3 1 4 -1 6
0 14 4 18 4 4 8 0 10 -8 2 -8 13 -17 25 -21z m837 20 c0 -3 -4 -8 -10 -11 -5
-3 -10 -1 -10 4 0 6 5 11 10 11 6 0 10 -2 10 -4z m484 -93 c9 -49 23 -128 31
-178 29 -185 94 -553 100 -575 3 -8 7 -37 10 -65 3 -27 9 -51 14 -53 5 -2 7
-19 4 -39 -6 -33 -4 -35 16 -28 23 7 28 -4 9 -23 -15 -15 -13 -61 7 -167 8
-44 19 -102 25 -130 18 -97 34 -200 32 -207 -3 -10 15 -10 21 0 2 4 2 1 0 -6
-17 -68 -17 -65 6 -59 15 3 21 1 18 -6 -3 -7 -10 -11 -16 -9 -12 2 -13 -29 -2
-68 7 -23 8 -24 18 -6 5 10 16 17 22 15 9 -3 6 -13 -8 -31 -21 -26 -27 -58
-15 -71 4 -3 8 -23 9 -44 1 -20 6 -38 12 -40 5 -2 7 -19 5 -38 -4 -36 5 -44
26 -23 10 10 15 10 22 -2 12 -20 -35 -47 -54 -31 -17 14 -76 2 -83 -16 -4 -10
-8 -11 -13 -3 -11 17 -113 2 -106 -16 3 -8 1 -14 -4 -14 -6 0 -10 -10 -10 -22
-1 -21 -2 -21 -11 -5 -6 10 -8 26 -4 35 5 13 2 12 -15 -3 -12 -11 -17 -21 -11
-23 21 -7 11 -32 -13 -32 -19 0 -26 7 -31 31 l-7 30 -19 -35 c-24 -46 -24 -58
1 -26 l20 25 0 -37 c0 -34 -3 -38 -32 -46 -21 -5 -34 -16 -37 -28 -2 -10 -8
-22 -15 -26 -8 -5 -7 -8 3 -8 7 0 11 -6 7 -15 -3 -8 -1 -15 4 -15 5 0 12 9 15
21 9 29 63 51 87 35 15 -9 21 -8 28 4 14 23 12 30 -12 40 -23 9 -23 9 -2 9 12
1 27 7 34 15 6 8 18 12 26 9 16 -6 20 22 4 30 -6 3 -5 4 2 3 7 -1 20 7 29 18
10 12 21 17 26 12 4 -5 2 -11 -4 -13 -7 -3 -13 -12 -13 -21 0 -15 2 -15 10 -2
5 8 10 11 10 7 0 -21 -42 -66 -56 -60 -8 3 -14 2 -13 -3 3 -13 -12 -47 -28
-62 -12 -12 -29 -18 -55 -21 -5 -1 -8 -8 -8 -17 0 -12 -5 -11 -20 7 -16 20
-21 22 -29 9 -5 -8 -7 -18 -4 -23 3 -5 9 -4 13 3 4 7 10 8 13 4 3 -5 -1 -15
-9 -21 -8 -8 -15 -9 -19 -3 -4 7 -13 6 -26 0 -16 -9 -19 -7 -19 9 0 11 -4 23
-10 26 -5 3 -10 2 -10 -4 0 -6 -7 -8 -16 -4 -9 3 -19 1 -23 -6 -4 -6 -15 -9
-25 -5 -13 5 -14 9 -4 21 9 11 9 16 0 22 -18 11 -5 38 21 46 43 14 49 14 43
-2 -3 -8 -6 -21 -6 -28 0 -7 -7 -12 -16 -11 -9 0 -19 -4 -21 -10 -2 -7 6 -11
19 -11 30 0 52 41 37 68 -5 11 -7 23 -5 28 8 12 -20 22 -39 15 -11 -5 -13 -10
-5 -19 8 -10 2 -15 -30 -20 -22 -4 -45 -14 -50 -23 -8 -14 -10 -11 -8 12 2 16
9 32 17 34 8 3 11 0 7 -7 -4 -6 -2 -11 3 -11 6 0 11 11 11 25 0 19 6 25 23 27
12 0 28 2 34 2 26 2 17 21 -11 24 -15 2 -26 -1 -22 -6 3 -5 -6 -7 -20 -4 -17
3 -30 -2 -39 -14 -8 -11 -14 -14 -15 -6 0 17 -30 15 -30 -3 0 -8 -5 -15 -11
-15 -6 0 -9 6 -6 14 4 10 0 12 -14 9 -11 -3 -22 -10 -25 -15 -3 -5 -12 -4 -20
3 -11 9 -18 9 -29 -1 -14 -11 -14 -15 0 -36 14 -22 13 -24 -18 -47 -49 -37
-57 -40 -72 -27 -23 19 -18 27 20 34 23 5 33 11 29 18 -5 7 -1 9 9 5 12 -5 17
-1 17 12 0 17 -18 31 -40 31 -4 0 -6 -9 -3 -20 3 -11 0 -20 -6 -20 -5 0 -8 6
-5 14 3 8 1 17 -5 21 -6 3 -11 1 -11 -4 0 -6 -5 -11 -11 -11 -5 0 -7 4 -4 10
4 6 -1 7 -10 3 -16 -5 -37 -9 -78 -12 -14 -1 -17 -6 -12 -21 4 -12 2 -19 -4
-18 -5 2 -17 -6 -26 -17 -14 -17 -16 -17 -11 -3 7 24 -6 23 -34 -2 -12 -11
-26 -17 -30 -15 -5 3 -13 -7 -18 -22 -9 -25 -10 -26 -11 -5 -1 16 -7 22 -23
22 -22 0 -22 0 2 22 33 31 14 34 -97 13 -48 -9 -142 -25 -208 -36 -138 -22
-157 -27 -150 -39 3 -4 -2 -10 -10 -13 -9 -4 -12 -1 -8 9 6 17 -15 18 -54 2
-15 -6 -32 -10 -38 -9 -5 2 -34 0 -62 -4 -47 -6 -54 -10 -69 -40 -16 -34 -38
-50 -55 -39 -5 3 -9 0 -9 -5 0 -6 -7 -11 -15 -11 -21 0 -19 24 5 45 16 14 23
15 34 6 12 -10 13 -9 9 9 -4 14 -11 19 -21 15 -14 -5 -134 -26 -257 -45 -33
-5 -98 -16 -145 -25 -47 -8 -104 -18 -127 -21 -34 -5 -43 -11 -43 -26 0 -12
-5 -18 -12 -15 -7 2 -12 10 -10 17 3 15 -69 4 -79 -12 -4 -6 -9 -6 -12 -1 -4
6 -47 2 -109 -9 -57 -10 -130 -22 -163 -27 -156 -25 -250 -44 -253 -52 -2 -5
-8 -7 -13 -3 -5 3 -9 -4 -9 -15 0 -12 -4 -21 -10 -21 -5 0 -10 10 -10 21 0 17
-4 20 -22 15 -13 -3 -31 -6 -40 -6 -11 0 -24 -14 -32 -32 l-14 -33 -2 30 c-1
29 -2 29 -11 7 -5 -15 -13 -20 -21 -16 -9 6 -9 9 0 12 7 2 12 9 12 15 -1 7
-10 1 -20 -12 -16 -18 -20 -20 -20 -7 0 13 -7 16 -32 12 -161 -26 -173 -30
-149 -45 8 -5 10 -14 6 -21 -6 -9 -9 -9 -15 0 -6 9 -10 8 -17 -6 -12 -24 -11
-33 6 -62 l13 -24 24 33 c16 22 24 27 24 16 0 -9 -5 -17 -11 -17 -6 0 -9 -7
-5 -15 3 -8 3 -29 -1 -46 -5 -26 -9 -30 -30 -24 -18 4 -24 2 -20 -7 2 -7 9
-12 15 -11 6 2 9 -4 6 -12 -4 -8 -12 -15 -19 -15 -15 0 -28 28 -19 42 4 6 0
14 -7 19 -10 6 -11 9 -1 9 7 0 12 14 12 34 0 36 -14 56 -23 34 -4 -9 -6 -7 -6
3 -1 9 6 22 14 29 17 14 18 20 6 38 -7 11 -19 12 -62 4 -30 -6 -90 -16 -134
-23 -44 -6 -85 -16 -92 -21 -7 -5 -16 -7 -22 -4 -13 8 -42 -4 -35 -15 3 -5 0
-9 -5 -9 -6 0 -11 5 -11 11 0 7 -7 8 -17 4 -10 -4 -27 -7 -38 -6 -36 2 -65 -9
-65 -25 0 -12 -5 -14 -17 -9 -10 4 -30 10 -45 13 -24 4 -28 1 -28 -19 0 -13
-4 -28 -8 -34 -10 -14 -42 -18 -42 -5 0 5 7 10 15 10 8 0 15 5 15 10 0 9 -42
15 -80 12 -8 -1 -32 -3 -54 -5 -23 -2 -42 -10 -48 -20 -5 -9 -14 -17 -19 -17
-6 0 -8 3 -6 7 3 5 -12 9 -33 11 -40 2 -91 -12 -89 -25 4 -22 -3 -24 -20 -9
-17 16 -19 16 -25 -1 -5 -12 -9 -14 -14 -5 -10 15 -108 4 -127 -15 -9 -9 -16
-10 -20 -3 -5 8 -11 7 -21 -1 -8 -6 -17 -9 -20 -6 -11 11 -31 -18 -39 -54 -7
-33 -7 -34 12 -17 27 24 32 23 29 -8 -3 -28 -29 -50 -46 -39 -6 4 -7 -1 -3
-12 6 -15 5 -16 -9 -3 -8 8 -13 20 -11 27 3 8 -3 10 -19 6 -21 -6 -22 -5 -9
10 12 15 12 17 -3 11 -10 -4 -22 -18 -27 -33 -8 -19 -12 -22 -19 -12 -5 9 -3
20 6 28 8 8 14 25 14 38 0 17 4 22 18 18 18 -4 50 22 39 33 -3 3 -19 3 -36 -1
-23 -5 -31 -12 -32 -28 0 -12 -3 -16 -6 -10 -3 9 -10 10 -24 3 -14 -8 -19 -7
-19 3 0 16 -52 15 -118 -2 -20 -5 -90 -17 -155 -26 -64 -10 -117 -21 -117 -24
0 -4 -18 -7 -41 -7 -22 0 -44 -5 -47 -11 -9 -12 -42 -25 -42 -15 0 14 -41 11
-46 -3 -4 -11 -10 -11 -23 -3 -25 16 -94 -18 -86 -42 3 -9 -1 -23 -10 -30 -12
-10 -15 -10 -15 3 0 13 -6 14 -30 7 -18 -5 -30 -5 -30 1 0 15 -36 10 -50 -6
-18 -22 -32 -18 -25 8 6 21 6 21 -9 3 -9 -11 -16 -23 -16 -28 0 -4 -6 -5 -14
-2 -9 3 -13 -4 -14 -23 -2 -55 -4 -62 -21 -54 -9 5 -21 6 -28 4 -20 -7 -27 19
-8 33 10 8 20 28 22 45 l3 31 -47 -7 c-27 -4 -50 -10 -53 -13 -3 -4 -31 -8
-62 -10 -70 -3 -169 -27 -180 -44 -4 -7 -8 -20 -9 -28 -1 -8 -3 -22 -4 -30 -1
-8 -3 -23 -4 -32 -1 -20 -61 -53 -61 -34 0 6 5 17 11 23 20 20 58 108 48 111
-17 7 -60 -8 -54 -18 3 -6 2 -10 -4 -10 -5 0 -11 5 -13 11 -3 8 -14 8 -40 1
-19 -5 -40 -7 -45 -3 -12 7 -29 76 -38 146 -3 28 -13 74 -21 103 -8 29 -14 58
-12 65 4 24 -13 87 -25 87 -9 0 -8 3 1 8 10 7 11 19 3 53 -5 24 -17 89 -25
144 -21 132 -35 211 -47 262 -5 23 -9 53 -9 67 0 14 -4 26 -9 26 -4 0 -6 11
-4 24 6 28 -14 96 -27 96 -5 0 -12 -9 -15 -20 -3 -11 -15 -20 -26 -20 -25 0
-25 20 1 27 11 3 20 12 20 20 0 8 -4 11 -10 8 -5 -3 -10 1 -10 9 0 24 -17 19
-24 -7 -5 -17 -8 -19 -15 -8 -5 7 -13 11 -19 7 -5 -3 -13 1 -16 10 -3 8 -11
12 -17 9 -6 -5 -4 -12 8 -21 17 -14 17 -14 0 -28 -10 -8 -14 -17 -9 -20 6 -3
8 -15 5 -27 -3 -12 -1 -24 6 -28 6 -4 9 -15 5 -25 -5 -13 -13 -16 -33 -11 -44
11 -49 41 -16 107 8 16 9 30 4 34 -20 12 -7 43 30 68 l38 27 48 -26 c26 -14
49 -25 50 -25 1 0 -4 33 -11 73 -7 39 -18 101 -24 137 -18 106 -20 110 -37
110 -15 0 -15 1 -1 13 14 11 14 20 2 87 -8 41 -18 106 -24 143 -6 38 -15 77
-20 87 -6 10 -10 36 -10 57 0 22 -7 48 -15 59 -18 23 -19 76 -3 92 9 9 9 12 0
12 -18 0 -14 24 8 48 12 12 18 22 15 22 -4 0 1 7 9 16 9 8 16 24 16 34 0 24
23 20 57 -10 25 -21 32 -20 36 7 3 25 71 52 82 32 4 -5 21 -9 38 -7 21 2 31
-2 33 -12 2 -8 6 -25 10 -37 5 -17 2 -23 -10 -23 -9 0 -16 7 -16 15 0 17 -25
21 -35 5 -3 -5 -12 -7 -21 -3 -8 3 -13 8 -10 10 3 3 -2 12 -11 21 -11 11 -19
13 -32 5 -9 -6 -16 -14 -16 -19 0 -19 -16 -33 -30 -27 -8 3 -15 0 -15 -7 0
-17 -26 -40 -45 -40 -9 0 -14 -4 -10 -9 3 -5 16 -8 30 -5 17 3 23 0 20 -8 -3
-8 8 -19 25 -27 37 -16 82 -8 74 14 -4 10 0 15 11 15 12 0 15 -5 11 -16 -5
-12 -2 -15 10 -10 8 3 27 6 40 6 15 0 23 4 19 10 -4 7 2 9 17 5 12 -3 61 1
108 10 47 8 117 20 155 26 39 6 76 16 83 22 8 6 44 12 80 13 37 1 76 4 87 7
11 2 53 10 93 17 40 8 75 17 78 21 2 5 11 6 18 3 8 -3 56 2 108 11 51 9 122
21 157 26 35 5 68 12 73 15 6 4 27 8 47 9 32 2 318 49 456 75 28 5 96 17 153
27 104 18 121 30 90 61 -21 21 15 47 62 45 49 -2 58 -8 71 -40 6 -17 15 -23
29 -21 12 2 21 8 22 13 2 11 3 13 41 59 30 37 49 27 41 -20 -3 -22 -1 -34 6
-34 6 0 9 4 5 9 -3 5 3 17 12 27 20 20 20 23 2 35 -9 5 -5 10 14 15 29 7 49
-2 32 -14 -14 -10 -17 -32 -5 -32 6 0 10 -5 10 -11 0 -6 -9 -8 -20 -4 -11 4
-20 2 -20 -4 0 -14 57 -14 65 -1 3 6 0 10 -7 10 -7 1 5 10 26 20 47 24 52 25
36 5 -7 -8 -22 -15 -33 -15 -16 0 -18 -3 -9 -12 9 -9 49 -5 169 16 87 15 221
39 298 52 77 13 165 28 195 34 30 5 87 14 125 20 39 6 106 18 150 26 102 18
166 29 285 49 138 23 200 37 200 46 0 4 16 5 35 2 30 -5 39 -1 65 27 17 18 30
40 29 49 -4 46 2 73 15 68 7 -3 29 7 47 22 42 34 73 45 95 33 16 -9 15 -10 -3
-16 -15 -5 -19 -13 -15 -36 3 -22 0 -30 -11 -30 -8 0 -18 -6 -20 -12 -3 -7 -6
-4 -6 6 -1 11 -3 17 -5 15 -2 -2 -4 -6 -3 -9 1 -3 -13 -20 -30 -38 -35 -33
-43 -62 -18 -62 9 0 12 6 9 15 -4 10 -2 13 7 10 8 -3 25 5 39 18 14 12 33 21
43 19 9 -2 17 2 17 9 0 11 2 11 13 0 10 -10 8 -15 -7 -27 -11 -8 -30 -14 -43
-14 -13 0 -23 -5 -23 -10 0 -12 71 -2 80 10 3 4 20 6 38 5 21 -1 36 4 42 14 7
12 9 12 10 2 0 -18 88 -5 113 16 13 13 17 13 17 3 0 -9 5 -7 15 6 8 10 15 14
15 8 0 -19 159 0 172 20 5 6 5 23 2 39 -3 16 -1 27 5 27 6 0 11 -7 11 -15 0
-9 7 -15 16 -13 10 2 19 -3 21 -10 3 -7 -1 -10 -10 -6 -9 3 -20 -3 -26 -15 -9
-16 -9 -19 1 -16 7 3 49 12 93 20 44 8 91 17 105 20 14 3 41 7 60 9 46 5 127
19 340 56 96 16 185 30 197 30 16 0 21 5 18 20 -2 11 0 20 6 20 5 0 9 -7 9
-16 0 -12 7 -14 28 -10 15 3 86 15 157 27 191 32 227 38 255 43 14 3 56 10 94
16 38 6 73 13 78 16 4 3 33 7 64 9 31 2 59 7 62 10 3 3 13 5 22 5 14 0 21 -18
34 -87z m-524 62 c0 -8 -7 -15 -15 -15 -8 0 -15 7 -15 15 0 8 7 15 15 15 8 0
15 -7 15 -15z m-190 -5 c0 -5 -2 -10 -4 -10 -3 0 -8 5 -11 10 -3 6 -1 10 4 10
6 0 11 -4 11 -10z m-60 -40 c8 -5 11 -12 8 -16 -10 -9 -38 3 -38 16 0 12 10
13 30 0z m-656 -25 c-4 -8 -10 -15 -15 -15 -4 0 -6 7 -3 15 4 8 10 15 15 15 4
0 6 -7 3 -15z m-308 -19 c15 -8 32 -12 37 -9 6 4 8 0 5 -9 -5 -12 2 -14 43
-11 30 2 49 0 49 -7 0 -5 -4 -10 -10 -10 -5 0 -10 -7 -10 -15 0 -8 -9 -15 -20
-15 -11 0 -20 -4 -20 -9 0 -5 -9 -7 -20 -4 -14 4 -20 0 -20 -11 0 -27 -25 -18
-28 10 -1 14 2 23 7 19 13 -8 22 10 15 29 -10 25 -23 19 -31 -15 -5 -16 -13
-30 -18 -29 -12 2 -7 34 6 38 13 5 11 22 -2 22 -6 0 -17 6 -25 14 -11 11 -11
16 -1 19 6 3 13 6 13 6 1 1 14 -6 30 -13z m234 10 c0 -14 -28 -54 -34 -48 -4
4 -12 -1 -17 -10 -14 -25 -49 -43 -49 -26 0 8 15 22 34 32 19 10 36 27 39 37
4 16 27 28 27 15z m165 -16 c-10 -11 -25 -20 -34 -19 -10 0 -8 3 7 9 12 5 22
14 22 20 0 5 5 10 12 10 6 0 3 -9 -7 -20z m-855 -30 c0 -11 -2 -20 -5 -20 -2
0 -9 9 -15 20 -9 16 -8 20 5 20 8 0 15 -9 15 -20z m1220 16 c0 -3 -4 -8 -10
-11 -5 -3 -10 -1 -10 4 0 6 5 11 10 11 6 0 10 -2 10 -4z m-340 -42 c0 -2 -7
-4 -15 -4 -8 0 -15 4 -15 10 0 5 7 7 15 4 8 -4 15 -8 15 -10z m-540 -39 c0 -8
-7 -15 -16 -15 -14 0 -14 3 -4 15 7 8 14 15 16 15 2 0 4 -7 4 -15z m313 -2
c-7 -3 -13 -11 -13 -19 0 -8 -4 -14 -10 -14 -17 0 -11 28 7 39 10 5 20 7 23 4
3 -3 -1 -8 -7 -10z m-226 -6 c11 4 14 3 9 -6 -5 -8 -1 -14 13 -18 12 -3 21
-10 21 -15 0 -6 -11 -7 -25 -4 -14 4 -25 2 -25 -4 0 -5 -5 -10 -12 -10 -9 0
-9 3 0 12 19 19 14 24 -20 22 -18 -1 -23 1 -10 3 12 2 22 12 23 21 0 10 3 12
5 5 3 -7 12 -9 21 -6z m263 -3 c0 -8 -4 -12 -10 -9 -5 3 -10 10 -10 16 0 5 5
9 10 9 6 0 10 -7 10 -16z m-550 -29 c0 -8 -7 -15 -15 -15 -13 0 -14 3 -3 15
16 18 18 18 18 0z m114 -6 c-8 -14 -24 -10 -24 6 0 9 6 12 15 9 8 -4 12 -10 9
-15z m266 0 c0 -11 -3 -11 -24 -3 -23 9 -20 23 4 17 11 -3 20 -9 20 -14z
m-300 7 c0 -12 -33 -35 -41 -30 -6 3 -2 12 8 20 18 13 33 18 33 10z m-60 -36
c0 -5 -5 -10 -11 -10 -5 0 -7 5 -4 10 3 6 8 10 11 10 2 0 4 -4 4 -10z m-600
-30 c0 -5 -4 -10 -10 -10 -5 0 -10 5 -10 10 0 6 5 10 10 10 6 0 10 -4 10 -10z
m60 -50 c0 -5 -4 -10 -10 -10 -5 0 -10 5 -10 10 0 6 5 10 10 10 6 0 10 -4 10
-10z m-1010 -34 c0 -11 -19 -15 -25 -6 -3 5 1 10 9 10 9 0 16 -2 16 -4z m-242
-34 c15 -15 40 -33 55 -40 30 -13 42 -34 33 -57 -5 -13 -9 -13 -26 -3 -11 7
-18 18 -16 25 3 7 1 15 -4 18 -6 4 -10 2 -10 -4 0 -6 -7 -8 -15 -5 -8 4 -12
10 -9 15 3 5 -2 9 -11 9 -9 0 -19 -9 -22 -20 -3 -11 -9 -20 -14 -20 -13 0 -11
17 2 26 11 6 9 32 -6 67 -11 27 13 21 43 -11z m1217 18 c-3 -5 -11 -10 -16
-10 -6 0 -7 5 -4 10 3 6 11 10 16 10 6 0 7 -4 4 -10z m-250 -30 c-3 -5 -11
-10 -16 -10 -6 0 -7 5 -4 10 3 6 11 10 16 10 6 0 7 -4 4 -10z m-1020 -16 c-9
-10 -14 -25 -12 -35 3 -11 1 -19 -4 -19 -5 0 -9 5 -9 11 0 7 -10 -3 -22 -21
-23 -33 -58 -57 -44 -29 4 8 0 5 -9 -6 -9 -11 -14 -28 -11 -37 2 -10 0 -18 -5
-18 -5 0 -9 9 -9 20 0 10 -5 31 -12 45 -10 23 -9 28 22 54 28 23 38 26 53 17
15 -9 22 -7 35 11 10 12 23 22 30 23 10 0 9 -5 -3 -16z m-396 -21 c-3 -20 2
-25 15 -14 19 16 45 -14 28 -31 -9 -9 -12 -9 -12 0 0 22 -37 13 -54 -13 -17
-25 -50 -33 -61 -15 -4 6 -11 8 -16 5 -20 -13 -7 16 21 45 26 27 82 43 79 23z
m-202 -28 c-9 -8 -17 -20 -20 -27 -2 -7 -8 -10 -12 -6 -9 8 22 48 37 48 5 0 3
-7 -5 -15z m673 -15 c0 -5 -4 -10 -10 -10 -5 0 -10 5 -10 10 0 6 5 10 10 10 6
0 10 -4 10 -10z m-770 -19 c0 -5 -7 -12 -16 -15 -8 -3 -12 -10 -9 -16 3 -5 1
-10 -4 -10 -15 0 -14 23 1 38 14 14 28 16 28 3z m30 -1 c0 -5 -4 -10 -10 -10
-5 0 -10 5 -10 10 0 6 5 10 10 10 6 0 10 -4 10 -10z m4860 -37 c0 -13 -80 -99
-80 -87 0 11 68 94 76 94 2 0 4 -3 4 -7z m-4565 -11 c6 -4 17 -16 25 -26 14
-18 13 -18 -8 -12 -13 5 -22 3 -22 -3 0 -6 4 -11 9 -11 5 0 7 -9 4 -20 -6 -22
-42 -27 -60 -9 -12 12 -8 31 15 67 15 24 21 26 37 14z m4582 -72 c-1 -11 -7
-20 -14 -20 -7 0 -13 -6 -14 -12 0 -9 -2 -10 -5 -1 -3 6 3 21 13 32 22 26 22
26 20 1z m-5729 -27 c-4 -32 -38 -46 -38 -16 0 20 18 43 33 43 4 0 7 -12 5
-27z m262 5 c0 -6 -7 -7 -16 -4 -8 3 -12 2 -9 -4 3 -6 -1 -10 -9 -10 -19 0
-21 11 -5 27 13 13 39 6 39 -9z m25 -38 c3 -5 1 -10 -4 -10 -6 0 -11 5 -11 10
0 6 2 10 4 10 3 0 8 -4 11 -10z m305 5 c0 -2 -9 -9 -20 -15 -16 -9 -18 -8 -14
5 5 13 34 22 34 10z m5144 -4 c3 -5 -1 -14 -9 -21 -13 -10 -15 -9 -15 9 0 21
14 28 24 12z m-74 -51 c0 -4 -11 -7 -24 -6 -18 1 -22 4 -14 13 10 12 38 7 38
-7z m-6150 0 c0 -5 -12 -10 -26 -10 -14 0 -23 4 -19 10 3 6 15 10 26 10 10 0
19 -4 19 -10z m6060 0 c0 -5 -7 -10 -16 -10 -8 0 -12 5 -9 10 3 6 10 10 16 10
5 0 9 -4 9 -10z m-5354 -25 c-25 -23 -27 -24 -46 -7 -29 24 -25 27 26 30 l47
2 -27 -25z m5508 16 c7 -10 -32 -47 -40 -38 -3 3 -15 -3 -27 -13 -11 -11 -24
-17 -29 -14 -10 7 9 44 23 44 6 0 17 7 25 15 17 17 40 20 48 6z m-72 -93 c-7
-7 -12 -8 -12 -2 0 14 12 26 19 19 2 -3 -1 -11 -7 -17z m-22 -10 c0 -5 -5 -6
-10 -3 -13 8 -33 -43 -27 -67 3 -9 -1 -22 -8 -28 -10 -8 -12 -2 -10 33 4 51
23 87 42 80 7 -3 13 -9 13 -15z m150 -12 c0 -23 -11 -46 -22 -46 -6 0 -7 7 -4
16 3 8 2 12 -4 9 -14 -9 -12 9 2 23 16 16 28 15 28 -2z m-6460 -27 c0 -10 -4
-19 -10 -19 -5 0 -10 4 -10 9 0 5 -3 17 -6 25 -5 12 -2 15 10 10 9 -3 16 -15
16 -25z m6334 -4 c-6 -15 -34 -29 -42 -21 -10 11 7 32 26 33 14 1 19 -3 16
-12z m-6334 -49 c0 -2 -7 -9 -15 -16 -12 -10 -15 -10 -15 4 0 9 7 16 15 16 8
0 15 -2 15 -4z m6342 -98 c-7 -7 -12 -8 -12 -2 0 14 12 26 19 19 2 -3 -1 -11
-7 -17z m-25 -13 c-4 -8 -11 -15 -17 -15 -7 0 -7 6 0 21 13 23 26 19 17 -6z
m163 5 c0 -5 -5 -10 -11 -10 -5 0 -7 5 -4 10 3 6 8 10 11 10 2 0 4 -4 4 -10z
m2 -420 c-5 -35 -17 -39 -25 -8 -7 25 -1 38 17 38 8 0 11 -10 8 -30z m33 -70
c-19 -21 -18 -21 24 -24 8 -1 16 -7 19 -15 3 -10 0 -12 -12 -8 -12 5 -19 0
-25 -15 -5 -14 -10 -18 -15 -10 -4 7 -12 10 -17 7 -5 -4 -9 0 -9 9 0 8 6 17
13 19 7 3 5 6 -5 6 -24 1 -23 10 4 32 28 25 46 24 23 -1z m-58 -89 c1 -11 -5
-22 -13 -25 -20 -7 -31 23 -13 35 20 13 25 11 26 -10z m143 -29 c0 -14 -2 -14
-9 -3 -8 12 -12 12 -26 -3 -13 -13 -20 -14 -31 -5 -17 14 -18 31 -3 46 16 16
69 -11 69 -35z m-185 -22 c3 -5 1 -10 -4 -10 -6 0 -11 5 -11 10 0 6 2 10 4 10
3 0 8 -4 11 -10z m32 -51 c-4 -17 -3 -19 6 -10 14 14 30 15 22 1 -3 -5 1 -10
9 -10 26 0 18 -27 -16 -55 -18 -15 -27 -24 -20 -20 6 3 12 1 12 -5 0 -7 -7 -9
-16 -6 -9 3 -20 6 -25 6 -14 0 -11 26 6 40 8 6 14 19 13 28 -2 28 2 52 8 52 4
0 4 -10 1 -21z m83 -94 c-7 -8 -16 -12 -21 -9 -5 3 -9 -4 -9 -15 0 -12 -7 -21
-15 -21 -9 0 -12 6 -8 18 7 21 32 42 51 42 12 0 12 -3 2 -15z m-25 -65 c-8
-14 8 -13 22 1 13 13 43 5 43 -10 0 -15 -75 -51 -106 -51 l-27 0 24 21 c13 11
23 27 21 35 -2 8 4 14 13 14 9 0 13 -4 10 -10z m109 -91 c-3 -5 -11 -9 -17 -9
-7 0 -6 4 3 10 13 8 12 10 -2 10 -10 0 -18 7 -18 17 0 14 2 14 20 -2 11 -10
17 -22 14 -26z m-54 18 c0 -21 -39 -40 -56 -26 -10 8 -14 8 -14 0 0 -6 -4 -11
-10 -11 -19 0 1 27 28 37 38 15 52 15 52 0z m-100 -19 c0 -13 -23 -5 -28 10
-2 7 2 10 12 6 9 -3 16 -11 16 -16z m-67 -22 c23 -18 22 -36 -3 -36 -11 0 -20
5 -20 11 0 5 -4 7 -10 4 -5 -3 -10 -13 -10 -21 0 -12 9 -14 45 -10 26 3 45 2
45 -4 0 -6 -4 -10 -10 -10 -5 0 -17 -12 -25 -27 -9 -16 -14 -20 -11 -11 3 12
1 15 -10 11 -7 -3 -14 0 -14 6 0 6 -4 11 -10 11 -5 0 -10 -9 -10 -21 0 -11 -4
-18 -9 -14 -5 3 -12 1 -15 -3 -3 -5 -21 -9 -41 -10 -30 -1 -34 1 -27 16 5 9 7
23 5 30 -3 6 3 12 11 12 9 0 21 10 27 23 9 20 54 57 69 56 3 0 13 -6 23 -13z
m122 -16 c3 -5 -1 -10 -10 -10 -9 0 -13 5 -10 10 3 6 8 10 10 10 2 0 7 -4 10
-10z m-65 -10 c0 -5 -4 -10 -9 -10 -6 0 -13 5 -16 10 -3 6 1 10 9 10 9 0 16
-4 16 -10z m75 -40 c-3 -5 -11 -10 -16 -10 -6 0 -7 5 -4 10 3 6 11 10 16 10 6
0 7 -4 4 -10z m-6591 -15 c-4 -8 -8 -15 -10 -15 -2 0 -4 7 -4 15 0 8 4 15 10
15 5 0 7 -7 4 -15z m5816 5 c0 -5 -4 -10 -10 -10 -5 0 -10 5 -10 10 0 6 5 10
10 10 6 0 10 -4 10 -10z m37 -13 c-11 -17 -12 -28 -5 -42 9 -15 8 -17 -6 -12
-10 4 -21 7 -26 7 -4 0 -3 11 3 25 7 14 16 25 20 25 5 0 5 5 2 10 -3 6 1 10
11 10 15 0 15 -2 1 -23z m28 -17 c-3 -5 -14 -10 -23 -10 -15 0 -15 2 -2 10 20
13 33 13 25 0z m624 -42 c-5 -10 -14 -18 -20 -18 -6 0 -8 4 -5 9 4 5 1 11 -5
13 -5 2 -7 11 -4 20 6 14 10 15 25 6 14 -9 16 -16 9 -30z m-935 17 c-8 -19
-44 -40 -44 -25 0 5 7 10 16 10 10 0 14 6 10 15 -3 9 0 15 9 15 9 0 12 -6 9
-15z m866 -30 c0 -9 -6 -12 -15 -9 -8 4 -15 10 -15 15 0 5 7 9 15 9 8 0 15 -7
15 -15z m-6440 1 c0 -3 -4 -8 -10 -11 -5 -3 -10 -1 -10 4 0 6 5 11 10 11 6 0
10 -2 10 -4z m5670 -13 c-2 -31 -54 -53 -64 -28 -3 9 -2 13 4 10 6 -4 17 1 26
9 16 17 34 21 34 9z m166 -5 c5 4 6 3 1 -2 -10 -13 -47 -18 -47 -8 0 16 13 22
25 12 7 -5 16 -6 21 -2z m-807 -29 c-19 -11 -24 -3 -8 14 8 9 16 11 18 5 2 -6
-3 -14 -10 -19z m150 -10 c-13 -10 -27 -19 -31 -19 -13 0 17 49 32 53 25 5 24
-15 -1 -34z m381 1 c-6 -12 -14 -19 -17 -16 -4 3 0 18 8 32 7 14 15 21 17 15
2 -5 -2 -20 -8 -31z m190 31 c0 -12 -20 -25 -27 -18 -7 7 6 27 18 27 5 0 9 -4
9 -9z m560 -7 c0 -2 -7 -4 -15 -4 -8 0 -15 4 -15 10 0 5 7 7 15 4 8 -4 15 -8
15 -10z m-6355 -23 c-15 -30 -35 -49 -35 -34 0 9 41 63 47 63 2 0 -3 -13 -12
-29z m105 19 c0 -5 -5 -10 -11 -10 -5 0 -7 5 -4 10 3 6 8 10 11 10 2 0 4 -4 4
-10z m5922 -22 c-7 -7 -12 -8 -12 -2 0 14 12 26 19 19 2 -3 -1 -11 -7 -17z
m-1087 -28 c7 -24 7 -24 -9 -5 -8 11 -16 27 -16 35 0 20 16 1 25 -30z m605 36
c0 -3 -4 -8 -10 -11 -5 -3 -10 -1 -10 4 0 6 5 11 10 11 6 0 10 -2 10 -4z m366
-44 c-20 -20 -22 -1 -4 31 11 20 12 21 16 3 2 -10 -3 -26 -12 -34z m-1017 -10
c-10 -16 -20 -19 -43 -15 -21 5 -27 3 -22 -6 5 -8 3 -12 -5 -10 -30 4 -39 -2
-40 -23 -1 -21 -2 -21 -6 -3 -3 11 -9 25 -14 31 -12 15 -2 41 16 41 10 0 11
-5 4 -19 -11 -20 -9 -21 15 -12 9 3 13 10 10 15 -5 8 10 13 19 7 2 -2 12 4 22
12 14 11 19 12 22 3 3 -7 9 -13 14 -13 4 0 6 8 2 18 -5 13 -3 14 6 6 10 -9 10
-16 0 -32z m801 34 c0 -3 -4 -8 -10 -11 -5 -3 -10 -1 -10 4 0 6 5 11 10 11 6
0 10 -2 10 -4z m30 -6 c0 -5 -4 -10 -10 -10 -5 0 -10 5 -10 10 0 6 5 10 10 10
6 0 10 -4 10 -10z m30 -4 c0 -3 -4 -8 -10 -11 -5 -3 -10 -1 -10 4 0 6 5 11 10
11 6 0 10 -2 10 -4z m-360 -21 c0 -9 -6 -12 -15 -9 -8 4 -12 10 -9 15 8 14 24
10 24 -6z m120 5 c0 -5 -4 -10 -10 -10 -5 0 -10 5 -10 10 0 6 5 10 10 10 6 0
10 -4 10 -10z m-420 -16 c0 -8 -5 -12 -10 -9 -6 4 -8 11 -5 16 9 14 15 11 15
-7z m-190 -39 c-19 -23 -29 -18 -17 9 7 15 16 21 21 16 6 -6 4 -15 -4 -25z
m186 -30 c-15 -23 -36 -34 -36 -18 0 10 43 54 48 48 3 -2 -3 -16 -12 -30z
m-421 15 c-3 -5 -11 -10 -16 -10 -6 0 -7 5 -4 10 3 6 11 10 16 10 6 0 7 -4 4
-10z m198 -10 c3 -11 2 -20 -3 -20 -4 0 -10 9 -13 20 -3 11 -2 20 3 20 4 0 10
-9 13 -20z m337 11 c0 -17 -18 -21 -24 -6 -3 9 0 15 9 15 8 0 15 -4 15 -9z
m-495 -11 c-3 -5 -12 -10 -18 -10 -7 0 -6 4 3 10 19 12 23 12 15 0z m625 0 c0
-5 -7 -10 -16 -10 -8 0 -12 5 -9 10 3 6 10 10 16 10 5 0 9 -4 9 -10z m-990
-46 c0 -8 -4 -14 -10 -14 -5 0 -10 9 -10 21 0 11 5 17 10 14 6 -3 10 -13 10
-21z m590 6 c0 -11 7 -20 15 -20 13 0 14 -2 3 -14 -11 -12 -15 -11 -25 8 -15
26 -16 46 -3 46 6 0 10 -9 10 -20z m-530 -14 c0 -3 -4 -8 -10 -11 -5 -3 -10
-1 -10 4 0 6 5 11 10 11 6 0 10 -2 10 -4z m480 -27 c0 -11 -5 -17 -10 -14 -6
4 -8 10 -5 15 3 4 -1 11 -7 13 -8 3 -6 6 5 6 11 1 17 -6 17 -20z m29 7 c9 -10
8 -15 -4 -20 -10 -4 -15 1 -15 14 0 24 4 25 19 6z m-799 -36 c0 -5 -2 -10 -4
-10 -3 0 -8 5 -11 10 -3 6 -1 10 4 10 6 0 11 -4 11 -10z m-606 -37 c-4 -16
-10 -30 -14 -33 -4 -3 -11 -16 -15 -28 -4 -13 -16 -33 -26 -43 -10 -10 -19
-25 -19 -33 0 -8 -7 -16 -15 -20 -8 -3 -15 -12 -15 -19 0 -8 -7 -14 -15 -14
-13 0 -13 3 -2 16 14 16 58 104 59 118 1 4 7 13 13 18 7 6 15 22 19 38 4 15
13 27 21 27 12 0 14 -7 9 -27z m762 3 c26 5 34 3 34 -9 0 -8 -7 -20 -15 -27
-13 -11 -14 -10 -9 4 3 9 1 16 -5 16 -6 0 -11 -4 -11 -10 0 -5 -5 -10 -11 -10
-5 0 -8 4 -5 9 3 4 -6 6 -19 3 -20 -3 -25 0 -25 15 0 27 12 37 23 18 6 -12 17
-14 43 -9z m-76 5 c0 -4 -4 -12 -9 -19 -7 -11 -11 -11 -22 1 -8 7 -21 16 -29
19 -8 3 2 5 23 5 20 -1 37 -3 37 -6z m-784 -14 c10 4 13 0 11 -13 -9 -46 -21
-80 -34 -92 -7 -7 -13 -19 -13 -26 0 -8 -7 -19 -15 -26 -20 -17 -19 -10 6 42
44 87 44 89 29 98 -8 5 -18 6 -22 4 -4 -3 -8 -1 -8 5 0 12 24 21 28 10 2 -4
10 -5 18 -2z m54 -6 c0 -6 -4 -13 -10 -16 -5 -3 -10 1 -10 9 0 9 5 16 10 16 6
0 10 -4 10 -9z m-320 -25 c0 -3 -4 -8 -10 -11 -5 -3 -10 -1 -10 4 0 6 5 11 10
11 6 0 10 -2 10 -4z m240 -1 c0 -2 -3 -10 -6 -19 -8 -20 -24 -21 -24 -2 0 8
-6 16 -12 19 -7 2 -1 4 15 4 15 0 27 -1 27 -2z m-173 -62 c-6 -57 -6 -57 8
-25 16 37 55 46 55 13 0 -11 -4 -23 -10 -26 -5 -3 -10 -2 -10 4 0 26 -30 -5
-44 -47 -19 -54 -14 -66 9 -22 21 40 29 35 13 -8 -13 -33 -37 -50 -48 -32 -4
6 -15 8 -26 4 -16 -5 -15 -3 3 10 36 27 47 55 32 82 -16 30 -31 31 -27 2 2
-11 -3 -23 -11 -26 -11 -4 -13 3 -7 29 3 18 12 37 19 41 9 6 9 10 -3 18 -13 9
-13 11 -1 19 8 5 20 7 28 4 7 -3 13 0 13 6 0 6 3 11 6 11 4 0 4 -26 1 -57z
m52 26 c-9 -5 -15 -4 -18 2 -2 6 3 15 10 20 9 5 15 4 18 -2 2 -6 -3 -15 -10
-20z m774 4 c9 -16 -8 -42 -22 -34 -8 5 -11 16 -8 25 7 17 23 21 30 9z m-1131
-25 c-3 -14 -2 -19 6 -14 7 4 12 2 12 -3 0 -6 -9 -11 -20 -11 -23 0 -24 4 -10
31 14 25 19 24 12 -3z m38 7 c0 -8 -2 -15 -4 -15 -2 0 -6 7 -10 15 -3 8 -1 15
4 15 6 0 10 -7 10 -15z m390 -8 c0 -4 5 -5 10 -2 6 3 10 -1 10 -9 0 -9 -7 -16
-15 -16 -8 0 -15 -5 -15 -11 0 -5 -5 -7 -11 -3 -6 3 -15 0 -20 -7 -7 -10 -8
-4 -5 16 2 17 5 33 5 37 1 10 41 5 41 -5z m191 -10 c-10 -9 -11 -8 -5 6 3 10
9 15 12 12 3 -3 0 -11 -7 -18z m89 13 c0 -5 -5 -10 -11 -10 -5 0 -7 5 -4 10 3
6 8 10 11 10 2 0 4 -4 4 -10z m-740 -14 c0 -11 -19 -15 -25 -6 -3 5 1 10 9 10
9 0 16 -2 16 -4z m-168 -18 c-5 -7 -12 -22 -14 -33 -4 -19 -4 -19 -16 3 -15
27 -8 42 20 42 15 0 18 -3 10 -12z m316 -9 c10 -13 9 -19 -3 -29 -13 -11 -15
-8 -15 20 0 19 1 31 3 29 1 -2 8 -11 15 -20z m489 -11 c-3 -8 -6 -5 -6 6 -1
11 2 17 5 13 3 -3 4 -12 1 -19z m-967 -8 c0 -11 -4 -20 -10 -20 -5 0 -10 -7
-10 -15 0 -8 -4 -15 -10 -15 -15 0 -12 57 3 63 22 10 27 7 27 -13z m-2430 -10
c0 -5 -2 -10 -4 -10 -3 0 -8 5 -11 10 -3 6 -1 10 4 10 6 0 11 -4 11 -10z
m2675 1 c3 -5 1 -12 -4 -15 -5 -3 -11 1 -15 9 -6 16 9 21 19 6z m405 -10 c0
-5 -7 -14 -15 -21 -16 -14 -18 -10 -9 14 6 17 24 22 24 7z m-3060 -21 c0 -5
-2 -10 -4 -10 -3 0 -8 5 -11 10 -3 6 -1 10 4 10 6 0 11 -4 11 -10z m2748 -30
c-7 -10 -14 -18 -15 -16 -6 6 9 36 18 36 5 0 4 -9 -3 -20z m-758 -15 c0 -9 -6
-12 -15 -9 -8 4 -12 10 -9 15 8 14 24 10 24 -6z m755 -25 c-3 -5 -10 -10 -16
-10 -5 0 -9 5 -9 10 0 6 7 10 16 10 8 0 12 -4 9 -10z m145 -5 c0 -8 -7 -15
-15 -15 -16 0 -20 12 -8 23 11 12 23 8 23 -8z m-905 -6 c4 -5 12 -8 18 -6 7 2
18 -3 26 -10 7 -8 20 -12 27 -9 8 3 19 -4 25 -15 9 -17 7 -21 -10 -26 -12 -3
-21 -10 -21 -17 0 -6 -4 -5 -9 3 -10 16 -31 6 -31 -14 0 -9 -6 -12 -16 -8 -13
5 -12 8 5 25 25 23 28 36 4 17 -15 -12 -16 -12 -11 7 4 18 2 21 -14 16 -11 -3
-24 1 -29 9 -12 19 -11 32 1 24 6 -3 10 -1 10 4 0 14 17 14 25 0z m-2095 -54
c-13 -25 -27 -45 -32 -45 -14 0 -9 20 7 26 8 4 12 10 10 15 -7 10 25 62 33 54
3 -3 -5 -25 -18 -50z m110 15 c-6 -12 -14 -19 -17 -16 -4 3 0 18 8 32 7 14 15
21 17 15 2 -5 -2 -20 -8 -31z m2202 8 c-9 -9 -12 -7 -12 12 0 19 3 21 12 12 9
-9 9 -15 0 -24z m-305 2 c11 -16 10 -18 -1 -14 -15 6 -30 34 -18 34 4 0 13 -9
19 -20z m-57 2 c0 -8 -43 -32 -55 -32 -3 0 -5 7 -5 16 0 8 4 13 8 10 4 -2 14
-1 22 5 19 11 30 11 30 1z m39 -44 c-10 -18 -9 -20 5 -15 10 4 16 1 16 -9 0
-8 -4 -12 -10 -9 -5 3 -10 1 -10 -4 0 -15 -18 -14 -35 2 -11 10 -10 16 8 35
26 28 41 29 26 0z m241 18 c0 -3 -4 -8 -10 -11 -5 -3 -10 -1 -10 4 0 6 5 11
10 11 6 0 10 -2 10 -4z m340 -6 c0 -5 -4 -10 -10 -10 -5 0 -10 5 -10 10 0 6 5
10 10 10 6 0 10 -4 10 -10z m-2493 -22 c-3 -8 -6 -5 -6 6 -1 11 2 17 5 13 3
-3 4 -12 1 -19z m1343 10 c0 -10 3 -9 9 1 7 10 10 10 16 1 10 -17 -16 -32 -32
-18 -15 12 -17 28 -3 28 6 0 10 -6 10 -12z m494 -13 c-4 -8 -13 -15 -21 -15
-13 0 -13 3 -3 15 7 8 16 15 21 15 5 0 6 -7 3 -15z m385 -17 c8 -2 4 -8 -13
-16 -20 -9 -25 -9 -23 1 1 6 -6 11 -15 9 -11 -2 -18 3 -18 12 0 20 22 26 40
11 8 -7 21 -14 29 -17z m-1049 12 c0 -5 -4 -10 -10 -10 -5 0 -10 5 -10 10 0 6
5 10 10 10 6 0 10 -4 10 -10z m70 0 c0 -5 -5 -10 -11 -10 -5 0 -7 5 -4 10 3 6
8 10 11 10 2 0 4 -4 4 -10z m70 -13 c0 -14 -19 -37 -31 -37 -4 0 -6 8 -4 18 2
9 4 20 4 25 2 13 31 7 31 -6z m388 -38 c-17 -45 -35 -75 -42 -69 -3 3 2 24 10
45 8 22 17 48 21 58 3 11 9 15 14 10 6 -6 4 -24 -3 -44z m293 28 c-10 -9 -11
-8 -5 6 3 10 9 15 12 12 3 -3 0 -11 -7 -18z m-1907 -2 c-4 -8 -8 -15 -10 -15
-2 0 -4 7 -4 15 0 8 4 15 10 15 5 0 7 -7 4 -15z m896 -5 c0 -11 -4 -20 -10
-20 -5 0 -10 9 -10 20 0 11 5 20 10 20 6 0 10 -9 10 -20z m648 -2 c-2 -12 -11
-22 -23 -24 -19 -3 -19 -2 -2 10 9 7 17 18 17 25 0 6 3 11 6 11 3 0 4 -10 2
-22z m328 -6 c-18 -18 -29 -12 -20 11 3 9 12 13 21 10 13 -5 13 -8 -1 -21z
m-863 -22 c-3 -12 -14 -20 -27 -20 -12 0 -16 3 -10 8 6 4 13 15 17 25 9 24 27
13 20 -13z m242 20 c3 -5 1 -10 -4 -10 -6 0 -11 5 -11 10 0 6 2 10 4 10 3 0 8
-4 11 -10z m59 -11 c-6 -11 -24 -2 -24 11 0 5 7 7 15 4 8 -4 12 -10 9 -15z
m266 -9 c0 -5 -5 -10 -11 -10 -5 0 -7 5 -4 10 3 6 8 10 11 10 2 0 4 -4 4 -10z
m-1583 -17 c5 -15 -54 -47 -62 -33 -10 16 4 30 22 23 13 -5 15 -2 10 11 -5 13
-3 17 10 14 9 -2 18 -8 20 -15z m1262 -10 c-8 -9 -16 -10 -22 -4 -13 13 0 31
19 24 11 -4 12 -8 3 -20z m191 17 c0 -5 -5 -10 -11 -10 -5 0 -7 5 -4 10 3 6 8
10 11 10 2 0 4 -4 4 -10z m-572 -27 c-17 -39 -38 -70 -38 -56 0 7 5 15 11 18
6 4 8 14 5 22 -4 9 -1 22 5 29 19 24 29 15 17 -13z m672 17 c0 -5 -4 -10 -10
-10 -5 0 -10 5 -10 10 0 6 5 10 10 10 6 0 10 -4 10 -10z m-1076 -17 c-5 -5
-12 -12 -16 -18 -4 -6 -8 -2 -8 8 0 9 7 17 17 17 9 0 12 -3 7 -7z m229 -23
c-22 -20 -33 -17 -33 8 0 9 7 13 20 9 11 -3 20 0 20 6 0 6 3 7 7 4 3 -4 -3
-16 -14 -27z m632 20 c3 -5 1 -10 -4 -10 -6 0 -11 5 -11 10 0 6 2 10 4 10 3 0
8 -4 11 -10z m63 3 c-10 -2 -18 -9 -18 -15 0 -6 -3 -9 -6 -5 -10 10 6 27 24
26 15 -1 15 -2 0 -6z m-491 -35 c-3 -7 -5 -2 -5 12 0 14 2 19 5 13 2 -7 2 -19
0 -25z m57 -37 c-8 -18 -14 -35 -14 -37 0 -2 -3 -4 -7 -4 -5 0 -8 14 -9 30 -1
20 4 30 13 30 8 0 12 4 9 9 -4 5 -3 17 1 27 6 16 7 16 14 -2 3 -10 0 -34 -7
-53z m-622 47 c-9 -9 -15 -9 -24 0 -9 9 -7 12 12 12 19 0 21 -3 12 -12z m459
-11 c-10 -9 -11 -8 -5 6 3 10 9 15 12 12 3 -3 0 -11 -7 -18z m259 13 c0 -5 -2
-10 -4 -10 -3 0 -8 5 -11 10 -3 6 -1 10 4 10 6 0 11 -4 11 -10z m153 -18 c-5
-11 -7 -11 -14 0 -6 8 -12 9 -16 3 -12 -15 -43 -38 -43 -32 0 4 10 15 21 26
24 22 60 25 52 3z m-889 0 c3 -5 -1 -9 -9 -9 -8 0 -15 4 -15 9 0 4 4 8 9 8 6
0 12 -4 15 -8z m86 -2 c0 -5 -7 -7 -15 -4 -8 4 -15 8 -15 10 0 2 7 4 15 4 8 0
15 -4 15 -10z m100 -4 c0 -8 -4 -17 -9 -21 -12 -7 -24 12 -16 25 9 15 25 12
25 -4z m533 -7 c4 -3 2 -11 -6 -18 -12 -9 -14 -7 -14 14 0 14 2 22 6 18 3 -4
10 -10 14 -14z m301 5 c5 -12 2 -15 -10 -10 -8 3 -18 6 -20 6 -3 0 -2 5 1 10
9 15 22 12 29 -6z m-1414 2 c0 -2 -7 -7 -16 -10 -8 -3 -12 -2 -9 4 6 10 25 14
25 6z m520 -16 c0 -6 -11 -15 -24 -20 -14 -5 -32 -21 -42 -35 -9 -14 -23 -25
-30 -25 -22 0 -16 13 15 35 24 16 28 22 18 34 -10 12 -9 14 5 8 10 -3 20 -2
23 3 8 13 35 13 35 0z m94 -14 c-6 -16 -24 -23 -24 -8 0 10 22 33 27 28 2 -2
1 -11 -3 -20z m364 -7 c-6 -4 -8 -11 -4 -17 3 -6 1 -14 -5 -17 -18 -12 -22 3
-9 35 9 22 15 28 21 18 4 -7 3 -15 -3 -19z m212 -14 c0 -9 -6 -12 -16 -8 -13
5 -13 7 -2 14 17 11 18 11 18 -6z m-790 -9 c0 -2 -8 -10 -17 -17 -16 -13 -17
-12 -4 4 13 16 21 21 21 13z m364 -33 c-3 -39 -4 -40 -14 -22 -10 16 -2 62 9
55 4 -3 6 -17 5 -33z m-760 -13 c-6 -6 -10 -3 -10 10 0 13 4 16 10 10 7 -7 7
-13 0 -20z m336 21 c0 -5 -7 -16 -15 -25 -8 -8 -16 -26 -17 -40 -2 -19 -5 -22
-15 -14 -13 11 -12 15 19 61 20 28 28 33 28 18z m280 -11 c0 -5 -5 -10 -11
-10 -5 0 -7 5 -4 10 3 6 8 10 11 10 2 0 4 -4 4 -10z m252 -22 c-7 -7 -12 -8
-12 -2 0 14 12 26 19 19 2 -3 -1 -11 -7 -17z m-732 -28 c0 -16 -4 -30 -8 -30
-5 0 -9 14 -9 30 0 17 4 30 9 30 4 0 8 -13 8 -30z m104 0 c-22 -9 -29 -6 -20
9 4 6 14 7 23 4 15 -6 14 -7 -3 -13z m403 4 c-3 -3 -12 -4 -19 -1 -8 3 -5 6 6
6 11 1 17 -2 13 -5z m-380 -30 c-3 -3 -12 -4 -19 -1 -8 3 -5 6 6 6 11 1 17 -2
13 -5z m83 -25 c0 -5 -4 -9 -10 -9 -5 0 -10 7 -10 16 0 8 5 12 10 9 6 -3 10
-10 10 -16z"/>
<path d="M5809 2793 c-41 -8 -83 -18 -94 -23 -11 -5 -38 -14 -60 -20 -66 -20
-165 -92 -165 -121 0 -5 -4 -9 -9 -9 -13 0 -40 -62 -49 -112 -13 -65 12 -173
50 -220 25 -32 101 -94 118 -96 9 -1 34 -9 83 -24 45 -15 49 -15 73 5 l26 20
-4 -23 c-3 -23 0 -24 62 -27 130 -5 198 -22 235 -58 76 -71 21 -171 -107 -195
-42 -8 -59 -7 -86 6 -18 9 -35 14 -36 12 -1 -1 -6 -14 -12 -27 -9 -21 -11 -22
-23 -7 -12 14 -12 16 3 10 23 -9 20 15 -7 56 -13 19 -29 50 -37 68 -12 30 -17
33 -44 29 -17 -3 -51 -12 -76 -21 -25 -8 -74 -21 -108 -27 -35 -7 -66 -18 -69
-26 -7 -19 51 -132 89 -174 18 -19 49 -44 68 -55 19 -10 37 -22 40 -26 10 -13
126 -28 171 -22 30 4 49 2 53 -5 4 -6 11 -9 15 -6 5 2 41 9 82 16 41 6 93 20
116 30 23 10 49 19 58 19 18 0 75 27 75 36 0 3 -4 3 -9 -1 -17 -10 -22 13 -6
28 8 9 15 25 15 36 0 12 6 21 14 21 8 0 16 6 19 13 8 21 19 -1 12 -24 -5 -15
-9 -18 -15 -9 -5 7 -10 8 -14 2 -3 -5 1 -15 8 -22 12 -9 18 -6 30 17 12 23 15
24 16 9 0 -15 7 -11 29 20 31 42 64 123 60 145 -1 8 1 22 5 31 20 44 -39 228
-72 228 -7 0 -11 4 -7 9 12 21 -98 84 -170 96 -22 4 -44 11 -50 15 -5 4 -39 8
-74 8 -35 1 -69 5 -75 9 -6 5 -46 8 -88 8 -43 0 -78 3 -78 8 0 4 -8 7 -17 7
-28 1 -63 36 -63 62 0 13 7 33 15 44 8 12 11 25 7 29 -4 3 -2 5 3 3 17 -5 75
24 75 38 0 8 7 14 15 14 8 0 15 -4 15 -10 0 -5 3 -9 8 -9 39 6 74 -5 104 -33
19 -18 38 -41 41 -50 8 -24 47 -23 100 1 23 10 75 24 116 31 l73 12 -6 30 c-3
17 -6 34 -6 38 0 5 -8 6 -17 4 -10 -2 -31 7 -46 21 -25 22 -27 28 -15 42 9 12
9 15 1 9 -7 -4 -13 -2 -13 3 0 6 5 11 11 11 7 0 0 9 -14 20 -14 11 -32 20 -41
20 -9 0 -16 4 -16 9 0 12 -40 24 -72 22 -16 -1 -28 1 -28 6 0 13 -130 10 -211
-4z m161 -17 c0 -3 -4 -8 -10 -11 -5 -3 -10 -1 -10 4 0 6 5 11 10 11 6 0 10
-2 10 -4z m80 -6 c0 -5 -2 -10 -4 -10 -3 0 -8 5 -11 10 -3 6 -1 10 4 10 6 0
11 -4 11 -10z m-90 -150 c0 -5 -4 -10 -10 -10 -5 0 -10 5 -10 10 0 6 5 10 10
10 6 0 10 -4 10 -10z m-340 -264 c-13 -13 -35 7 -25 24 5 8 11 8 21 -1 10 -8
12 -15 4 -23z m-59 -39 c-10 -9 -11 -8 -5 6 3 10 9 15 12 12 3 -3 0 -11 -7
-18z m401 -3 c-2 -10 -10 -25 -17 -33 -11 -11 -15 -11 -28 0 -14 12 -13 16 6
36 26 25 43 24 39 -3z m130 -6 c-7 -7 -12 -8 -12 -2 0 14 12 26 19 19 2 -3 -1
-11 -7 -17z m-342 -31 c0 -19 -10 -27 -25 -20 -17 6 -8 33 11 33 8 0 14 -6 14
-13z m240 9 c0 -3 -4 -8 -10 -11 -5 -3 -10 -1 -10 4 0 6 5 11 10 11 6 0 10 -2
10 -4z m-39 -49 c-10 -9 -11 -8 -5 6 3 10 9 15 12 12 3 -3 0 -11 -7 -18z
m-281 9 c0 -2 -7 -9 -15 -16 -13 -11 -14 -10 -9 4 5 14 24 23 24 12z m410 -46
c0 -5 -5 -10 -11 -10 -5 0 -7 5 -4 10 3 6 8 10 11 10 2 0 4 -4 4 -10z m-334
-337 c-10 -10 -19 5 -10 18 6 11 8 11 12 0 2 -7 1 -15 -2 -18z m-16 -33 c0 -5
-4 -10 -10 -10 -5 0 -10 5 -10 10 0 6 5 10 10 10 6 0 10 -4 10 -10z m8 -35
c-6 -14 -15 -25 -20 -25 -5 0 -1 11 8 25 9 14 18 25 20 25 2 0 -2 -11 -8 -25z
m-35 0 c-3 -9 -8 -14 -10 -11 -3 3 -2 9 2 15 9 16 15 13 8 -4z m104 -7 c-3 -8
-6 -5 -6 6 -1 11 2 17 5 13 3 -3 4 -12 1 -19z m-19 -54 c-4 -11 -28 -14 -28
-4 0 8 22 20 28 14 2 -1 2 -6 0 -10z m-91 -16 c-3 -8 -6 -5 -6 6 -1 11 2 17 5
13 3 -3 4 -12 1 -19z m43 8 c0 -3 -4 -8 -10 -11 -5 -3 -10 -1 -10 4 0 6 5 11
10 11 6 0 10 -2 10 -4z"/>
<path d="M2631 2711 c-20 -13 -23 -41 -4 -41 13 0 13 2 2 17 -12 15 -12 16 4
10 11 -4 17 -2 17 8 0 17 0 18 -19 6z"/>
<path d="M2478 2643 c7 -3 16 -2 19 1 4 3 -2 6 -13 5 -11 0 -14 -3 -6 -6z"/>
<path d="M4861 2603 c-14 -9 -21 -11 -17 -5 4 7 1 12 -8 12 -9 0 -16 -5 -16
-11 0 -5 -4 -8 -9 -5 -5 3 -47 -1 -92 -9 -46 -8 -97 -15 -112 -15 -15 0 -30
-7 -33 -15 -5 -12 -10 -13 -20 -4 -14 12 -15 10 -34 -86 -10 -48 -25 -135 -35
-200 -3 -16 -14 -77 -25 -133 -10 -57 -19 -107 -18 -110 1 -4 -1 -14 -4 -22
-4 -8 -13 -58 -22 -110 -8 -52 -29 -167 -45 -255 -40 -207 -40 -209 0 -201 17
3 38 6 45 6 7 0 12 6 10 13 -1 6 -1 9 1 5 7 -12 61 -10 68 2 4 6 10 8 15 5 8
-5 127 14 139 21 1 2 5 18 7 36 13 126 16 148 23 152 4 3 36 10 72 16 35 5
114 19 174 30 61 11 113 20 117 20 7 0 78 -143 78 -159 0 -15 44 -14 127 3 37
7 101 19 141 26 39 7 72 17 72 22 0 5 -5 6 -10 3 -6 -3 -13 2 -16 12 -6 21 -7
23 -75 144 -28 52 -65 119 -82 149 -42 77 -53 91 -62 82 -4 -4 -4 3 -1 15 4
12 2 24 -4 28 -6 4 -16 17 -21 28 -5 12 -15 31 -22 42 -11 18 -52 89 -114 200
-13 22 -37 66 -53 97 -16 31 -34 59 -40 63 -5 3 -10 15 -10 26 0 10 -4 19 -9
19 -5 0 -13 9 -16 20 -8 26 -19 25 -33 -2 -8 -17 -11 -18 -11 -7 -1 9 5 22 13
29 14 11 12 40 -3 40 -4 0 -17 -8 -30 -17z m29 -163 c0 -5 -4 -10 -10 -10 -5
0 -10 5 -10 10 0 6 5 10 10 10 6 0 10 -4 10 -10z m-77 -201 c21 -41 52 -101
69 -134 17 -33 38 -68 47 -78 15 -17 14 -20 -2 -32 -10 -7 -52 -18 -94 -24
-41 -6 -87 -14 -100 -17 -25 -7 -25 -7 -20 57 6 86 28 281 33 297 8 26 29 5
67 -69z m-253 -47 c0 -11 -8 -26 -18 -35 -17 -15 -18 -15 -20 9 -1 14 2 23 8
19 6 -3 10 1 10 9 0 9 5 16 10 16 6 0 10 -8 10 -18z m23 -202 c-3 -12 -8 -19
-11 -16 -5 6 5 36 12 36 2 0 2 -9 -1 -20z m343 -137 c-11 -11 -19 6 -11 24 8
17 8 17 12 0 3 -10 2 -21 -1 -24z m-345 -206 c-8 -8 -11 -7 -11 4 0 20 13 34
18 19 3 -7 -1 -17 -7 -23z"/>
<path d="M3945 2417 c-16 -33 -25 -41 -42 -39 -16 2 -23 -2 -23 -13 0 -24 -31
-14 -41 13 -6 17 -4 27 11 42 23 23 21 24 -53 9 -34 -7 -57 -17 -57 -25 0 -7
6 -43 14 -81 7 -37 18 -99 25 -138 37 -226 52 -305 57 -318 3 -8 0 -18 -7 -22
-11 -7 -140 119 -324 320 -82 89 -145 155 -167 173 -12 9 -28 10 -64 3 -27 -5
-91 -17 -142 -27 -84 -15 -92 -18 -86 -36 3 -11 9 -44 13 -73 5 -38 15 -59 34
-77 19 -18 24 -31 20 -47 -3 -14 -11 -20 -20 -17 -10 4 -13 1 -9 -12 3 -9 8
-35 11 -57 17 -117 16 -111 30 -92 7 10 35 24 62 31 l48 13 -1 46 c0 26 4 47
9 47 5 0 7 8 4 19 -9 34 10 51 45 40 54 -15 97 -39 108 -59 8 -15 6 -23 -12
-40 -13 -12 -30 -19 -39 -17 -9 3 -23 1 -30 -3 -7 -5 -23 -4 -35 0 -19 8 -22
6 -17 -6 3 -9 0 -20 -8 -26 -11 -7 -11 -11 -1 -15 17 -7 15 -30 -3 -30 -8 0
-12 4 -9 9 11 18 -18 6 -41 -16 -15 -15 -22 -31 -19 -40 3 -9 2 -16 -4 -16 -6
0 -13 6 -15 13 -3 6 -6 2 -6 -10 -1 -16 -6 -21 -16 -17 -12 5 -15 -2 -15 -29
0 -20 4 -38 9 -41 5 -3 7 -16 3 -28 -3 -12 -1 -19 4 -15 5 3 8 -12 6 -34 -3
-23 1 -46 9 -55 7 -9 12 -34 12 -57 0 -23 1 -32 4 -19 2 12 9 22 14 22 5 0 9
7 9 15 0 8 -4 15 -10 15 -5 0 -10 5 -10 11 0 5 4 8 9 4 5 -3 17 2 26 11 19 20
33 11 16 -10 -10 -12 -8 -18 13 -31 14 -9 30 -14 35 -10 16 9 25 -44 12 -72
-7 -14 -14 -23 -18 -20 -3 4 0 13 7 22 17 20 5 32 -15 15 -13 -10 -15 -9 -15
9 0 11 -4 21 -10 21 -5 0 -9 -3 -8 -7 2 -5 -9 -20 -24 -34 -29 -29 -29 -69 -1
-69 13 0 13 2 2 17 -12 15 -12 16 4 10 10 -4 24 -7 30 -7 6 0 1 -7 -11 -16
-23 -16 -29 -39 -12 -49 5 -3 7 0 4 8 -3 8 -1 18 5 22 7 4 11 -4 11 -19 0 -13
-5 -26 -12 -28 -11 -4 -16 -123 -5 -134 4 -4 126 15 235 37 50 10 53 12 48 37
-5 26 -16 88 -36 212 -25 154 -42 249 -49 282 -18 77 4 68 116 -51 60 -62 136
-142 171 -178 34 -35 62 -65 62 -68 0 -2 13 -17 29 -33 27 -26 30 -27 43 -12
20 25 23 47 5 31 -23 -18 -30 15 -10 46 l17 25 9 -23 9 -24 9 29 c5 17 4 34
-1 40 -9 11 3 31 30 53 13 9 15 6 16 -23 0 -19 -3 -34 -8 -34 -4 0 -8 -13 -8
-28 0 -16 -9 -38 -21 -50 -11 -12 -25 -36 -31 -53 -10 -28 -8 -34 23 -65 34
-35 63 -44 72 -21 4 9 6 9 6 0 1 -7 8 -10 16 -7 8 4 13 9 11 13 -3 4 21 7 52
6 71 0 112 11 112 30 0 12 5 12 26 4 27 -10 47 -4 28 9 -6 4 -12 31 -13 60 -1
30 -6 65 -12 78 -5 14 -9 40 -9 58 0 19 -7 39 -15 46 -11 9 -12 16 -5 25 8 9
8 15 0 20 -5 3 -7 17 -4 31 4 15 2 24 -6 24 -7 0 -9 8 -5 19 3 11 1 39 -4 63
-8 34 -26 135 -37 203 -1 6 -2 22 -3 37 0 15 -7 32 -13 39 -8 7 -12 29 -9 57
2 29 0 42 -7 38 -7 -4 -9 6 -6 31 4 31 3 35 -6 21 -6 -10 -18 -18 -25 -18 -8
0 -15 -4 -15 -10 0 -5 7 -10 15 -10 18 0 20 -31 3 -48 -9 -9 -8 -12 7 -12 18
0 17 -1 -3 -16 -22 -15 -24 -15 -37 2 -16 21 -18 41 -9 95 5 31 11 38 38 44
21 5 26 9 14 12 -22 6 -24 23 -2 23 11 0 14 5 10 16 -3 9 -6 26 -6 39 0 20 -5
24 -30 23 -22 -1 -30 -6 -30 -20 0 -10 -4 -18 -10 -18 -13 0 -13 4 4 45 22 52
-4 45 -29 -8z m25 -57 c0 -10 -32 -30 -49 -30 -6 0 -11 5 -11 11 0 5 4 8 9 5
5 -3 11 1 15 9 6 16 36 21 36 5z m30 -18 c0 -5 -6 -17 -14 -28 -19 -25 -31
-12 -14 15 13 21 28 28 28 13z m-786 -109 c-15 -24 -34 -28 -34 -6 0 26 21 46
34 33 7 -7 7 -16 0 -27z m125 -326 c10 -15 11 -22 2 -25 -6 -2 -9 -8 -5 -13 3
-5 0 -9 -6 -9 -6 0 -9 8 -6 18 7 20 -3 36 -26 45 -10 3 -18 11 -18 16 0 17 44
-7 59 -32z m-47 -29 c-7 -7 -10 -5 -7 8 5 29 6 30 12 16 3 -8 1 -18 -5 -24z
m303 -10 c-7 -38 -13 -47 -23 -32 -4 6 -15 13 -24 17 -10 3 -18 16 -18 27 0
16 6 20 35 20 34 0 35 -1 30 -32z m-355 12 c0 -5 -7 -10 -16 -10 -8 0 -12 5
-9 10 3 6 10 10 16 10 5 0 9 -4 9 -10z m60 -37 c0 -8 5 -11 11 -7 7 4 9 2 5
-7 -3 -8 -9 -22 -12 -31 -10 -27 -27 -21 -20 6 3 14 2 28 -4 31 -15 9 -12 22
5 22 8 0 15 -7 15 -14z m700 -3 c0 -5 -4 -10 -10 -10 -5 0 -10 5 -10 10 0 6 5
10 10 10 6 0 10 -4 10 -10z m-730 -37 c0 -5 -10 -13 -23 -19 -19 -9 -23 -7
-24 8 -1 13 5 18 23 18 13 0 24 -3 24 -7z m840 -13 c0 -5 -4 -10 -10 -10 -5 0
-10 5 -10 10 0 6 5 10 10 10 6 0 10 -4 10 -10z m-938 -42 c-7 -7 -12 -8 -12
-2 0 14 12 26 19 19 2 -3 -1 -11 -7 -17z m78 2 c0 -5 -7 -10 -16 -10 -8 0 -12
5 -9 10 3 6 10 10 16 10 5 0 9 -4 9 -10z m40 -2 c0 -5 -7 -11 -15 -14 -9 -4
-15 -19 -15 -35 0 -19 -5 -29 -15 -29 -8 0 -24 -9 -35 -20 -26 -26 -38 -19
-32 20 3 21 10 30 23 30 11 0 19 5 19 10 0 6 6 10 14 10 8 0 17 8 20 18 6 19
36 27 36 10z m690 -8 c0 -5 -5 -10 -11 -10 -5 0 -7 5 -4 10 3 6 8 10 11 10 2
0 4 -4 4 -10z m-108 -25 c-2 -14 -9 -25 -14 -25 -6 0 -8 -6 -5 -14 3 -8 -1
-17 -9 -20 -17 -6 -17 -7 -2 35 9 27 23 47 34 49 1 0 -1 -11 -4 -25z m-552
-30 c0 -8 6 -15 13 -16 10 0 10 -2 0 -6 -7 -2 -13 -9 -13 -14 0 -6 5 -7 10 -4
6 3 10 1 10 -5 0 -6 -8 -14 -17 -17 -10 -4 -23 -14 -30 -22 -10 -12 -12 -13
-13 -2 0 11 -3 11 -15 1 -9 -8 -15 -8 -15 -2 0 6 9 13 19 17 13 4 22 19 26 45
6 38 25 56 25 25z m75 -75 c7 -22 6 -23 -9 -11 -9 7 -16 10 -16 5 0 -9 -47
-34 -63 -34 -5 0 -4 7 3 15 7 8 16 13 20 10 4 -3 11 5 15 18 4 12 8 25 10 30
1 4 3 10 4 14 2 13 29 -21 36 -47z m468 21 c-3 -13 -11 -17 -24 -14 -10 3 -19
0 -19 -6 0 -6 5 -11 11 -11 20 0 -23 -33 -47 -36 -33 -3 -30 4 9 21 17 8 27
14 20 15 -23 0 -1 39 26 43 14 2 27 5 28 6 0 0 -1 -7 -4 -18z m287 -21 c0 -12
-5 -17 -14 -14 -8 3 -12 13 -9 25 6 23 23 15 23 -11z m16 -116 c-4 -9 -9 -15
-11 -12 -3 3 -3 13 1 22 4 9 9 15 11 12 3 -3 3 -13 -1 -22z m-906 -148 c0 -2
-7 -9 -15 -16 -13 -11 -14 -10 -9 4 5 14 24 23 24 12z"/>
<path d="M4011 2447 c-8 -10 -7 -14 4 -14 8 0 15 6 15 14 0 7 -2 13 -4 13 -2
0 -9 -6 -15 -13z"/>
<path d="M331 2307 c-6 -8 -8 -17 -4 -20 3 -4 1 -7 -5 -7 -7 0 -12 -4 -12 -10
0 -21 19 -8 29 20 11 33 9 37 -8 17z"/>
<path d="M363 2295 c0 -8 7 -15 15 -15 12 0 12 3 2 15 -7 8 -13 15 -15 15 -1
0 -2 -7 -2 -15z"/>
<path d="M2760 2256 c-3 -2 -63 -15 -133 -27 l-127 -22 6 -36 c3 -20 12 -70
19 -111 8 -41 19 -104 25 -140 6 -36 20 -117 32 -180 27 -152 34 -262 18 -301
-7 -16 -32 -46 -55 -67 -36 -32 -50 -37 -99 -40 -68 -4 -121 12 -151 44 -12
13 -25 21 -28 18 -3 -3 -3 4 0 17 5 18 3 21 -12 16 -14 -6 -16 -3 -11 18 5 18
2 25 -9 25 -17 0 -20 11 -6 25 10 12 -9 135 -21 135 -4 0 -5 14 -1 30 4 23 2
30 -11 30 -9 0 -16 -8 -17 -17 0 -11 -3 -13 -6 -5 -3 8 -14 1 -31 -20 -15 -19
-37 -33 -49 -34 -13 0 -23 0 -23 2 0 1 25 27 54 58 49 50 56 54 66 39 9 -14
10 -9 6 27 -6 55 -54 338 -62 362 -6 21 -42 34 -57 19 -15 -15 -30 -14 -21 1
4 6 3 9 -2 6 -5 -3 -37 -9 -72 -12 -35 -4 -85 -11 -113 -17 -54 -12 -60 -24
-35 -71 8 -15 10 -28 5 -30 -5 -2 -4 -20 3 -41 9 -29 15 -36 30 -31 10 3 18 0
18 -6 0 -7 5 -6 14 2 15 14 11 32 -5 23 -5 -4 -9 3 -9 14 0 26 23 18 40 -15
12 -22 11 -26 -8 -45 -12 -11 -22 -17 -22 -13 0 4 -9 -2 -20 -14 -21 -22 -27
-52 -10 -52 5 0 7 -7 3 -16 -3 -9 0 -47 7 -85 10 -53 17 -69 28 -64 7 3 17 5
22 5 5 0 10 10 12 23 4 27 58 39 58 13 0 -9 -4 -16 -10 -16 -5 0 -6 -7 -3 -17
4 -10 2 -14 -4 -10 -7 4 -10 -3 -9 -18 1 -17 6 -23 20 -22 10 1 21 -4 24 -12
3 -8 0 -11 -7 -7 -7 5 -9 1 -5 -8 4 -11 0 -16 -10 -16 -9 0 -15 -3 -14 -7 1
-5 -2 -19 -6 -32 -6 -17 -10 -20 -16 -10 -5 7 -3 21 6 33 21 30 17 44 -10 39
-49 -10 -41 -159 13 -261 10 -20 12 -19 41 8 17 16 40 32 50 35 25 8 67 -23
73 -52 5 -27 -1 -29 -17 -7 -10 13 -14 11 -32 -13 -19 -25 -19 -32 -8 -63 7
-19 13 -29 13 -21 1 9 9 12 29 8 26 -5 28 -4 26 24 -3 44 9 80 21 65 10 -12
12 -17 22 -67 6 -31 4 -32 -91 -44 l-50 -7 33 -29 c19 -16 40 -29 47 -29 8 0
14 -4 14 -8 0 -12 68 -34 81 -26 6 3 15 1 19 -6 11 -18 86 -19 82 -1 -2 11 0
12 10 4 19 -15 99 -23 120 -12 12 7 18 21 18 44 0 24 5 35 15 35 10 0 15 -10
15 -31 0 -16 4 -28 9 -24 5 3 13 0 16 -6 5 -7 21 -8 43 -4 36 7 55 20 65 45 3
9 6 10 6 3 2 -33 99 7 164 66 38 34 80 97 95 142 13 37 7 73 -9 63 -6 -3 -16
-1 -24 6 -10 8 -15 8 -20 -1 -6 -8 -10 -7 -16 2 -6 10 -9 8 -9 -8 0 -13 -4
-23 -10 -23 -5 0 -10 6 -10 14 0 8 5 18 10 21 6 3 10 15 10 26 0 16 4 19 22
13 12 -3 28 -13 36 -20 15 -16 32 -10 32 12 0 8 5 14 11 14 7 0 9 10 5 28 -3
15 -8 62 -11 106 -3 43 -10 86 -15 95 -8 14 -9 13 -10 -6 0 -12 -6 -24 -12
-26 -8 -3 -6 -6 5 -6 9 -1 17 -6 17 -12 0 -6 -7 -9 -15 -5 -19 7 -19 -4 1 -32
14 -20 14 -24 -5 -48 l-20 -25 -21 21 c-16 16 -20 28 -15 43 4 12 10 39 12 60
4 32 9 38 24 34 23 -6 25 9 5 29 -10 9 -17 10 -21 4 -7 -11 -25 -4 -25 9 0 17
54 20 65 4 9 -12 10 -7 7 20 -4 34 -5 35 -35 26 -39 -11 -37 -11 -37 0 0 5 12
11 27 13 23 2 28 9 30 33 2 17 0 37 -3 45 -5 12 -8 11 -14 -5 -8 -20 -9 -20
-9 1 -1 11 2 24 6 28 10 10 13 36 4 36 -5 0 -6 11 -3 25 2 14 0 25 -7 25 -6 0
-8 7 -4 17 4 11 3 14 -6 9 -8 -5 -10 -18 -7 -32 4 -14 2 -24 -4 -24 -5 0 -10
8 -10 18 0 14 -2 15 -10 2 -5 -8 -21 -14 -35 -15 -14 0 -30 -7 -35 -15 -8 -12
-10 -11 -10 6 0 12 7 24 15 28 8 3 23 21 32 41 9 19 20 35 24 35 17 0 29 67
21 125 -6 54 -9 60 -32 63 -14 2 -28 1 -30 -2z m-887 -280 c3 -8 -1 -17 -9
-20 -9 -4 -14 1 -14 14 0 23 15 27 23 6z m885 -56 c-15 -24 -19 -21 -11 8 3
12 9 19 14 16 5 -3 3 -14 -3 -24z m67 17 c-11 -8 -28 -17 -37 -20 -15 -5 -16
-4 -5 13 6 11 23 20 37 20 24 0 24 -1 5 -13z m-5 -48 c0 -5 -5 -9 -11 -9 -7 0
-9 -9 -6 -22 4 -15 -1 -29 -19 -45 -14 -13 -22 -23 -19 -23 3 0 3 -5 0 -10 -5
-8 -12 -7 -22 2 -9 7 -24 12 -34 10 -26 -5 -30 12 -13 54 12 28 18 34 25 23 7
-11 9 -11 9 3 0 16 6 18 73 25 9 1 17 -2 17 -8z m-885 -29 c3 -5 0 -18 -6 -28
-13 -20 -7 -52 10 -52 5 0 12 16 15 35 7 33 26 50 26 22 0 -10 15 -12 58 -9
38 2 72 -2 95 -12 32 -13 37 -19 36 -48 0 -18 -3 -27 -6 -20 -6 14 -33 16 -33
2 0 -5 -7 -10 -15 -10 -8 0 -15 5 -15 10 0 18 -20 11 -21 -7 -1 -17 -2 -17 -6
0 -2 9 -9 17 -15 17 -6 0 -5 7 3 17 12 14 12 16 -1 11 -8 -2 -16 -13 -18 -24
-3 -21 -42 -52 -42 -34 0 5 5 10 10 10 6 0 10 5 10 10 0 6 -7 10 -15 10 -21 0
-19 18 3 23 9 3 3 5 -15 6 -17 0 -35 -4 -38 -9 -6 -10 -52 -6 -63 5 -4 3 -1
10 6 14 7 4 14 22 15 39 2 32 11 41 22 22z m872 -62 c-3 -8 -6 -5 -6 6 -1 11
2 17 5 13 3 -3 4 -12 1 -19z m3 -22 c0 -3 -4 -8 -10 -11 -5 -3 -10 -1 -10 4 0
6 5 11 10 11 6 0 10 -2 10 -4z m-740 -63 c0 -16 -16 -30 -32 -30 -21 0 -24 23
-5 30 19 8 37 8 37 0z m-31 -79 c4 3 7 -4 7 -15 0 -10 -3 -19 -7 -19 -9 0 -19
28 -18 48 1 15 2 15 6 -1 2 -9 8 -15 12 -13z m621 -19 c0 -8 -4 -15 -10 -15
-5 0 -7 7 -4 15 4 8 8 15 10 15 2 0 4 -7 4 -15z m-534 -30 c-11 -8 -22 -12
-25 -9 -6 6 19 24 34 24 6 -1 1 -7 -9 -15z m-37 -17 c-1 -19 -2 -19 -6 -5 -3
11 -11 16 -19 13 -8 -3 -14 -1 -14 4 0 6 9 10 20 10 14 0 20 -6 19 -22z m113
-10 c-7 -7 -12 -8 -12 -2 0 6 3 14 7 17 3 4 9 5 12 2 2 -3 -1 -11 -7 -17z
m-166 -24 c-4 -9 -9 -15 -11 -12 -3 3 -3 13 1 22 4 9 9 15 11 12 3 -3 3 -13
-1 -22z m834 -34 c0 -13 -5 -18 -15 -14 -8 4 -15 12 -15 20 0 8 7 14 15 14 8
0 15 -9 15 -20z m30 5 c0 -8 -4 -15 -10 -15 -5 0 -7 7 -4 15 4 8 8 15 10 15 2
0 4 -7 4 -15z m-20 -105 c0 -5 -2 -10 -4 -10 -3 0 -8 5 -11 10 -3 6 -1 10 4
10 6 0 11 -4 11 -10z m-754 -135 c-6 -17 -15 -18 -34 -6 -11 7 -12 12 -1 29
11 17 14 18 27 6 8 -8 11 -21 8 -29z m444 11 c0 -3 -4 -8 -10 -11 -5 -3 -10
-1 -10 4 0 6 5 11 10 11 6 0 10 -2 10 -4z m40 -31 c19 -23 -8 -79 -30 -65 -13
8 -12 10 3 10 20 0 25 55 5 63 -8 4 -9 6 -2 6 6 1 17 -6 24 -14z m-146 -11
c24 -9 20 -44 -4 -44 -11 0 -20 4 -20 9 0 5 -3 16 -6 25 -6 17 4 20 30 10z
m179 -23 c3 -13 1 -18 -9 -14 -7 2 -10 11 -7 19 7 19 10 18 16 -5z m-98 -11
c3 -5 -1 -10 -10 -10 -9 0 -13 5 -10 10 3 6 8 10 10 10 2 0 7 -4 10 -10z
m-340 -18 c11 -2 37 -8 58 -13 32 -9 37 -14 37 -39 0 -17 -5 -30 -11 -30 -6 0
-9 7 -5 15 5 15 -5 19 -32 16 -8 -1 -20 6 -27 16 -7 10 -21 18 -31 18 -11 0
-20 9 -22 20 -2 11 0 16 5 10 4 -5 17 -11 28 -13z m475 -7 c0 -8 -8 -15 -17
-14 -11 0 -13 3 -5 6 6 2 10 9 6 14 -3 5 0 9 5 9 6 0 11 -7 11 -15z m-140 -5
c-19 -13 -30 -13 -30 0 0 6 10 10 23 10 18 0 19 -2 7 -10z"/>
<path d="M3262 2075 c4 -4 3 -18 -2 -31 -11 -29 0 -31 24 -5 17 19 17 20 -6
32 -13 6 -20 8 -16 4z"/>
<path d="M3310 2032 c0 -10 -6 -24 -12 -31 -11 -10 -10 -11 5 -6 9 4 17 13 17
20 0 7 5 15 12 17 7 3 6 7 -5 11 -12 4 -17 1 -17 -11z"/>
<path d="M2801 2024 c0 -11 3 -14 6 -6 3 7 2 16 -1 19 -3 4 -6 -2 -5 -13z"/>
<path d="M1083 1967 c-35 -5 -63 -14 -63 -18 0 -5 -7 -6 -15 -3 -8 4 -22 1
-30 -6 -11 -9 -15 -9 -15 -1 0 7 -5 9 -12 4 -7 -4 -20 -7 -28 -5 -34 5 -40
-11 -26 -73 8 -33 17 -87 21 -120 10 -88 26 -156 34 -150 5 2 6 -7 3 -21 -4
-25 9 -132 29 -224 5 -25 12 -59 14 -75 2 -17 5 -32 6 -35 1 -3 3 -12 3 -20 4
-31 18 -117 33 -197 12 -62 20 -83 31 -83 13 0 13 -3 4 -12 -7 -7 -12 -23 -12
-36 0 -18 4 -23 16 -18 9 3 24 6 35 6 11 0 19 7 19 16 0 9 -5 12 -11 8 -7 -4
-10 -1 -7 6 8 25 28 22 28 -3 l0 -25 63 13 c34 7 103 18 152 25 50 7 98 17
109 23 10 5 41 10 70 12 28 2 92 11 141 20 50 9 114 20 142 24 29 4 55 10 58
12 2 3 0 30 -5 60 -5 29 -14 86 -21 126 l-11 71 -37 -5 c-20 -3 -85 -14 -146
-25 -125 -22 -224 -38 -242 -38 -22 0 -14 -19 11 -26 26 -6 46 -41 37 -64 -7
-18 -41 -26 -41 -9 0 7 -3 9 -7 6 -3 -4 -12 -2 -20 4 -9 9 -13 8 -13 0 0 -6
-4 -11 -10 -11 -5 0 -10 6 -10 14 0 17 -35 27 -48 14 -11 -11 -5 -39 11 -49 5
-4 6 -12 2 -18 -13 -22 -34 22 -35 70 0 39 3 48 21 52 14 4 19 11 16 24 -3 10
-8 39 -12 66 -4 31 -11 47 -21 47 -8 0 -14 5 -14 11 0 5 5 7 10 4 14 -9 13 8
-2 23 -9 9 -14 8 -22 -3 -9 -12 -13 -12 -24 1 -11 12 -10 15 5 21 41 16 56 48
23 50 -11 1 -18 -2 -15 -6 2 -5 -3 -15 -13 -24 -16 -15 -19 -15 -30 3 -11 17
-10 20 8 20 11 0 20 6 20 13 0 7 9 19 20 27 21 15 21 60 0 115 -6 15 -10 41
-11 58 l0 32 -12 -34 c-7 -19 -19 -37 -27 -39 -12 -4 -11 -1 3 15 9 11 17 27
17 36 0 9 4 18 9 21 13 9 -3 71 -19 72 -46 5 -46 4 -26 19 10 8 23 12 27 9 4
-2 7 4 6 15 0 11 -5 17 -9 15 -4 -3 -8 16 -9 43 0 60 -9 136 -16 143 -2 3 -10
-2 -16 -11 -15 -20 -77 -36 -77 -20 0 6 11 11 24 11 14 0 28 5 31 10 3 6 3 9
-2 9 -4 -1 -36 -6 -70 -12z m-77 -49 c4 -7 3 -8 -4 -4 -7 4 -12 1 -12 -9 0 -9
-4 -13 -10 -10 -5 3 -10 -1 -10 -9 0 -9 -5 -16 -11 -16 -11 0 -4 15 19 43 18
20 19 20 28 5z m124 7 c0 -7 -39 -45 -45 -45 -3 0 2 11 11 25 14 22 34 34 34
20z m-180 -10 c0 -10 -32 -55 -39 -55 -11 0 -10 33 2 48 9 12 37 17 37 7z
m215 -15 c-3 -5 -12 -10 -18 -10 -7 0 -6 4 3 10 19 12 23 12 15 0z m-239 -77
c-10 -10 -19 5 -10 18 6 11 8 11 12 0 2 -7 1 -15 -2 -18z m183 -2 c-15 -5 -22
6 -14 19 6 9 10 9 16 -1 5 -8 4 -15 -2 -18z m-115 -16 c-6 -16 -24 -21 -24 -7
0 11 11 22 21 22 5 0 6 -7 3 -15z m54 -55 c-30 -51 -41 -51 -21 0 9 22 22 40
30 40 10 0 8 -10 -9 -40z m112 -70 c0 -5 -5 -10 -11 -10 -5 0 -7 5 -4 10 3 6
8 10 11 10 2 0 4 -4 4 -10z m40 -30 c0 -5 -5 -10 -11 -10 -5 0 -7 5 -4 10 3 6
8 10 11 10 2 0 4 -4 4 -10z m-210 -14 c0 -2 -8 -10 -17 -17 -16 -13 -17 -12
-4 4 13 16 21 21 21 13z m144 -11 c-6 -16 -24 -21 -24 -7 0 11 11 22 21 22 5
0 6 -7 3 -15z m63 -1 c-3 -3 -12 -4 -19 -1 -8 3 -5 6 6 6 11 1 17 -2 13 -5z
m-96 -73 c-7 -5 -17 -15 -22 -22 -6 -10 -9 -8 -9 9 0 16 6 22 23 22 16 0 18
-3 8 -9z m-12 -118 c-11 -30 -64 -98 -57 -73 3 8 -2 20 -11 27 -14 11 -14 12
2 13 9 0 17 8 18 18 0 10 3 12 6 4 3 -8 11 -4 25 13 25 32 29 32 17 -2z m15
-38 c-4 -8 -10 -15 -15 -15 -4 0 -6 7 -3 15 4 8 10 15 15 15 4 0 6 -7 3 -15z
m-36 -50 c-6 -14 -15 -25 -20 -25 -9 0 -4 14 15 38 15 19 18 14 5 -13z m106
-7 c-5 -8 -2 -9 11 -4 15 5 16 4 5 -9 -11 -13 -15 -13 -21 -3 -12 18 -11 28 2
28 5 0 7 -5 3 -12z m223 -273 c-4 -8 -15 -15 -26 -15 -17 0 -19 -5 -15 -37 3
-29 2 -33 -5 -18 -13 27 -14 95 -1 75 8 -13 11 -13 27 2 19 20 28 17 20 -7z"/>
<path d="M1850 1895 c0 -8 7 -15 15 -15 9 0 12 6 9 15 -4 8 -10 15 -15 15 -5
0 -9 -7 -9 -15z"/>
<path d="M3150 1891 c0 -17 18 -21 24 -6 3 9 0 15 -9 15 -8 0 -15 -4 -15 -9z"/>
<path d="M6600 1320 c-9 -6 -10 -10 -3 -10 6 0 15 5 18 10 8 12 4 12 -15 0z"/>
<path d="M6500 1301 c0 -5 -10 -6 -22 -3 -22 5 -22 5 -5 -12 17 -17 21 -34 18
-68 -1 -10 4 -18 11 -18 19 0 45 21 33 26 -38 17 -40 24 -12 47 34 28 34 37 2
37 -14 0 -25 -4 -25 -9z"/>
<path d="M2034 1246 c-6 -17 2 -36 17 -36 12 0 12 37 -1 45 -6 3 -13 -1 -16
-9z"/>
<path d="M6127 1163 c-4 -3 -7 -11 -7 -17 0 -6 5 -5 12 2 6 6 9 14 7 17 -3 3
-9 2 -12 -2z"/>
<path d="M4885 3160 c-3 -5 -1 -10 4 -10 6 0 11 5 11 10 0 6 -2 10 -4 10 -3 0
-8 -4 -11 -10z"/>
<path d="M6826 1225 c-3 -9 -6 -22 -5 -28 0 -7 5 -1 10 12 5 13 8 26 5 28 -2
2 -6 -3 -10 -12z"/>
<path d="M6788 1193 c7 -3 16 -2 19 1 4 3 -2 6 -13 5 -11 0 -14 -3 -6 -6z"/>
<path d="M4946 3274 c-11 -28 -7 -35 13 -22 10 6 17 18 14 25 -7 18 -20 16
-27 -3z"/>
<path d="M4612 3266 c-45 -9 -51 -13 -40 -25 10 -10 10 -15 1 -18 -9 -3 -8
-11 3 -29 9 -13 14 -31 10 -39 -7 -19 -1 -19 34 2 20 12 30 27 34 55 4 21 13
41 21 44 18 7 20 24 3 23 -7 -1 -37 -6 -66 -13z"/>
<path d="M4481 3236 c-9 -10 -7 -15 9 -19 25 -6 32 4 15 20 -10 10 -16 9 -24
-1z"/>
<path d="M4400 3220 c-13 -8 -12 -10 3 -10 9 0 17 5 17 10 0 12 -1 12 -20 0z"/>
<path d="M3833 3088 c-13 -6 -23 -19 -23 -30 0 -10 0 -21 -1 -25 0 -5 8 -10
18 -12 15 -3 16 -1 3 14 -12 14 -12 18 1 26 8 5 17 9 20 9 4 0 9 7 13 15 6 17
0 18 -31 3z"/>
<path d="M5040 909 c0 -5 5 -7 10 -4 6 3 10 8 10 11 0 2 -4 4 -10 4 -5 0 -10
-5 -10 -11z"/>
</g>
</svg>
